<?xml version="1.0" standalone="no"?>
 <!DOCTYPE svg PUBLIC "-//W3C//DTD SVG 1.1//EN" 
 "http://www.w3.org/Graphics/SVG/1.1/DTD/svg11.dtd"> 
<svg
  xmlns:svg="http://www.w3.org/2000/svg"
  xmlns="http://www.w3.org/2000/svg"
  xmlns:xlink="http://www.w3.org/1999/xlink"
  version="1.1"
  width="297.0022mm" height="210.0072mm" viewBox="0.0000 0.0000 297.0022 210.0072">
<title>SVG Image created as tp4056_2side-F_Cu.svg date 2023/12/11 14:36:07 </title>
  <desc>Image generated by PCBNEW </desc>
<g style="fill:#000000; fill-opacity:1.0000;stroke:#000000; stroke-opacity:1.0000;
stroke-linecap:round; stroke-linejoin:round;"
 transform="translate(0 0) scale(1 1)">
</g>
<g style="fill:#000000; fill-opacity:0.0; 
stroke:#000000; stroke-width:0.0000; stroke-opacity:1; 
stroke-linecap:round; stroke-linejoin:round;">
<g >
</g>
<g style="fill:#000000; fill-opacity:0.0; 
stroke:#000000; stroke-width:0.0000; stroke-opacity:1; 
stroke-linecap:round; stroke-linejoin:round;">
</g>
<g style="fill:#000000; fill-opacity:1.0000; 
stroke:#000000; stroke-width:0.0000; stroke-opacity:1; 
stroke-linecap:round; stroke-linejoin:round;">
<path style="fill:#000000; fill-opacity:1.0000; 
stroke:#000000; stroke-width:0.0000; stroke-opacity:1; 
stroke-linecap:round; stroke-linejoin:round;fill-rule:evenodd;"
d="M 100.9760,47.2360
100.9760,46.2360
103.4860,46.2360
103.4860,47.2360
Z" /> 
<path style="fill:#000000; fill-opacity:1.0000; 
stroke:#000000; stroke-width:0.0000; stroke-opacity:1; 
stroke-linecap:round; stroke-linejoin:round;fill-rule:evenodd;"
d="M 104.2860,49.7760
104.2860,48.7760
106.7960,48.7760
106.7960,49.7760
Z" /> 
</g>
<g >
</g>
<g style="fill:#000000; fill-opacity:1.0000; 
stroke:#000000; stroke-width:0.0000; stroke-opacity:1; 
stroke-linecap:round; stroke-linejoin:round;">
<path style="fill:#000000; fill-opacity:1.0000; 
stroke:#000000; stroke-width:0.0000; stroke-opacity:1; 
stroke-linecap:round; stroke-linejoin:round;fill-rule:evenodd;"
d="M 64.7880,55.8880
66.2380,55.8880
66.2380,56.4880
64.7880,56.4880
Z" /> 
<path style="fill:#000000; fill-opacity:1.0000; 
stroke:#000000; stroke-width:0.0000; stroke-opacity:1; 
stroke-linecap:round; stroke-linejoin:round;fill-rule:evenodd;"
d="M 64.7880,56.6880
66.2380,56.6880
66.2380,57.2880
64.7880,57.2880
Z" /> 
<path style="fill:#000000; fill-opacity:1.0000; 
stroke:#000000; stroke-width:0.0000; stroke-opacity:1; 
stroke-linecap:round; stroke-linejoin:round;fill-rule:evenodd;"
d="M 64.7880,58.0380
66.2380,58.0380
66.2380,58.3380
64.7880,58.3380
Z" /> 
<path style="fill:#000000; fill-opacity:1.0000; 
stroke:#000000; stroke-width:0.0000; stroke-opacity:1; 
stroke-linecap:round; stroke-linejoin:round;fill-rule:evenodd;"
d="M 64.7880,59.0380
66.2380,59.0380
66.2380,59.3380
64.7880,59.3380
Z" /> 
<path style="fill:#000000; fill-opacity:1.0000; 
stroke:#000000; stroke-width:0.0000; stroke-opacity:1; 
stroke-linecap:round; stroke-linejoin:round;fill-rule:evenodd;"
d="M 64.7880,59.5380
66.2380,59.5380
66.2380,59.8380
64.7880,59.8380
Z" /> 
<path style="fill:#000000; fill-opacity:1.0000; 
stroke:#000000; stroke-width:0.0000; stroke-opacity:1; 
stroke-linecap:round; stroke-linejoin:round;fill-rule:evenodd;"
d="M 64.7880,60.5380
66.2380,60.5380
66.2380,60.8380
64.7880,60.8380
Z" /> 
<path style="fill:#000000; fill-opacity:1.0000; 
stroke:#000000; stroke-width:0.0000; stroke-opacity:1; 
stroke-linecap:round; stroke-linejoin:round;fill-rule:evenodd;"
d="M 64.7880,61.5880
66.2380,61.5880
66.2380,62.1880
64.7880,62.1880
Z" /> 
<path style="fill:#000000; fill-opacity:1.0000; 
stroke:#000000; stroke-width:0.0000; stroke-opacity:1; 
stroke-linecap:round; stroke-linejoin:round;fill-rule:evenodd;"
d="M 64.7880,62.3880
66.2380,62.3880
66.2380,62.9880
64.7880,62.9880
Z" /> 
<path style="fill:#000000; fill-opacity:1.0000; 
stroke:#000000; stroke-width:0.0000; stroke-opacity:1; 
stroke-linecap:round; stroke-linejoin:round;fill-rule:evenodd;"
d="M 64.7880,62.3880
66.2380,62.3880
66.2380,62.9880
64.7880,62.9880
Z" /> 
<path style="fill:#000000; fill-opacity:1.0000; 
stroke:#000000; stroke-width:0.0000; stroke-opacity:1; 
stroke-linecap:round; stroke-linejoin:round;fill-rule:evenodd;"
d="M 64.7880,61.5880
66.2380,61.5880
66.2380,62.1880
64.7880,62.1880
Z" /> 
<path style="fill:#000000; fill-opacity:1.0000; 
stroke:#000000; stroke-width:0.0000; stroke-opacity:1; 
stroke-linecap:round; stroke-linejoin:round;fill-rule:evenodd;"
d="M 64.7880,61.0380
66.2380,61.0380
66.2380,61.3380
64.7880,61.3380
Z" /> 
<path style="fill:#000000; fill-opacity:1.0000; 
stroke:#000000; stroke-width:0.0000; stroke-opacity:1; 
stroke-linecap:round; stroke-linejoin:round;fill-rule:evenodd;"
d="M 64.7880,60.0380
66.2380,60.0380
66.2380,60.3380
64.7880,60.3380
Z" /> 
<path style="fill:#000000; fill-opacity:1.0000; 
stroke:#000000; stroke-width:0.0000; stroke-opacity:1; 
stroke-linecap:round; stroke-linejoin:round;fill-rule:evenodd;"
d="M 64.7880,58.5380
66.2380,58.5380
66.2380,58.8380
64.7880,58.8380
Z" /> 
<path style="fill:#000000; fill-opacity:1.0000; 
stroke:#000000; stroke-width:0.0000; stroke-opacity:1; 
stroke-linecap:round; stroke-linejoin:round;fill-rule:evenodd;"
d="M 64.7880,57.5380
66.2380,57.5380
66.2380,57.8380
64.7880,57.8380
Z" /> 
<path style="fill:#000000; fill-opacity:1.0000; 
stroke:#000000; stroke-width:0.0000; stroke-opacity:1; 
stroke-linecap:round; stroke-linejoin:round;fill-rule:evenodd;"
d="M 64.7880,56.6880
66.2380,56.6880
66.2380,57.2880
64.7880,57.2880
Z" /> 
<path style="fill:#000000; fill-opacity:1.0000; 
stroke:#000000; stroke-width:0.0000; stroke-opacity:1; 
stroke-linecap:round; stroke-linejoin:round;fill-rule:evenodd;"
d="M 64.7880,55.8880
66.2380,55.8880
66.2380,56.4880
64.7880,56.4880
Z" /> 
</g>
<g style="fill:#000000; fill-opacity:1.0000; 
stroke:#000000; stroke-width:1.0000; stroke-opacity:1; 
stroke-linecap:round; stroke-linejoin:round;">
</g>
<g style="fill:#000000; fill-opacity:0.0; 
stroke:#000000; stroke-width:1.0000; stroke-opacity:1; 
stroke-linecap:round; stroke-linejoin:round;">
<path d="M65.1480 55.1180
L64.0480 55.1180
" />
<path d="M60.7180 55.1180
L60.1180 55.1180
" />
<path d="M65.1480 63.7580
L64.0480 63.7580
" />
<path d="M60.7180 63.7580
L60.1180 63.7580
" />
</g>
<g >
</g>
<g style="fill:#000000; fill-opacity:0.0; 
stroke:#000000; stroke-width:1.0000; stroke-opacity:1; 
stroke-linecap:round; stroke-linejoin:round;">
</g>
<g style="fill:#000000; fill-opacity:0.0; 
stroke:#000000; stroke-width:0.0000; stroke-opacity:1; 
stroke-linecap:round; stroke-linejoin:round;">
</g>
<g style="fill:#000000; fill-opacity:1.0000; 
stroke:#000000; stroke-width:0.0000; stroke-opacity:1; 
stroke-linecap:round; stroke-linejoin:round;">
<path style="fill:#000000; fill-opacity:1.0000; 
stroke:#000000; stroke-width:0.0000; stroke-opacity:1; 
stroke-linecap:round; stroke-linejoin:round;fill-rule:evenodd;"
d="M 87.8080,55.6840
87.8270,55.5883
87.8812,55.5072
87.9623,55.4530
88.0580,55.4340
88.7580,55.4340
88.8537,55.4530
88.9348,55.5072
88.9890,55.5883
89.0080,55.6840
89.0080,56.5840
88.9890,56.6797
88.9348,56.7608
88.8537,56.8150
88.7580,56.8340
88.0580,56.8340
87.9623,56.8150
87.8812,56.7608
87.8270,56.6797
87.8080,56.5840
Z" /> 
<path style="fill:#000000; fill-opacity:1.0000; 
stroke:#000000; stroke-width:0.0000; stroke-opacity:1; 
stroke-linecap:round; stroke-linejoin:round;fill-rule:evenodd;"
d="M 89.8080,55.6840
89.8270,55.5883
89.8812,55.5072
89.9623,55.4530
90.0580,55.4340
90.7580,55.4340
90.8537,55.4530
90.9348,55.5072
90.9890,55.5883
91.0080,55.6840
91.0080,56.5840
90.9890,56.6797
90.9348,56.7608
90.8537,56.8150
90.7580,56.8340
90.0580,56.8340
89.9623,56.8150
89.8812,56.7608
89.8270,56.6797
89.8080,56.5840
Z" /> 
</g>
<g >
</g>
<g style="fill:#000000; fill-opacity:1.0000; 
stroke:#000000; stroke-width:0.0000; stroke-opacity:1; 
stroke-linecap:round; stroke-linejoin:round;">
<path style="fill:#000000; fill-opacity:1.0000; 
stroke:#000000; stroke-width:0.0000; stroke-opacity:1; 
stroke-linecap:round; stroke-linejoin:round;fill-rule:evenodd;"
d="M 95.7415,51.4320
95.8324,51.4501
95.9094,51.5016
95.9609,51.5786
95.9790,51.6695
95.9790,52.2695
95.9609,52.3604
95.9094,52.4374
95.8324,52.4889
95.7415,52.5070
95.2665,52.5070
95.1756,52.4889
95.0986,52.4374
95.0471,52.3604
95.0290,52.2695
95.0290,51.6695
95.0471,51.5786
95.0986,51.5016
95.1756,51.4501
95.2665,51.4320
Z" /> 
<path style="fill:#000000; fill-opacity:1.0000; 
stroke:#000000; stroke-width:0.0000; stroke-opacity:1; 
stroke-linecap:round; stroke-linejoin:round;fill-rule:evenodd;"
d="M 95.7415,53.1570
95.8324,53.1751
95.9094,53.2266
95.9609,53.3036
95.9790,53.3945
95.9790,53.9945
95.9609,54.0854
95.9094,54.1624
95.8324,54.2139
95.7415,54.2320
95.2665,54.2320
95.1756,54.2139
95.0986,54.1624
95.0471,54.0854
95.0290,53.9945
95.0290,53.3945
95.0471,53.3036
95.0986,53.2266
95.1756,53.1751
95.2665,53.1570
Z" /> 
</g>
<g >
</g>
<g style="fill:#000000; fill-opacity:1.0000; 
stroke:#000000; stroke-width:0.0000; stroke-opacity:1; 
stroke-linecap:round; stroke-linejoin:round;">
<path style="fill:#000000; fill-opacity:1.0000; 
stroke:#000000; stroke-width:0.0000; stroke-opacity:1; 
stroke-linecap:round; stroke-linejoin:round;fill-rule:evenodd;"
d="M 90.7540,52.7740
90.7350,52.8697
90.6808,52.9508
90.5997,53.0050
90.5040,53.0240
89.8040,53.0240
89.7083,53.0050
89.6272,52.9508
89.5730,52.8697
89.5540,52.7740
89.5540,51.8740
89.5730,51.7783
89.6272,51.6972
89.7083,51.6430
89.8040,51.6240
90.5040,51.6240
90.5997,51.6430
90.6808,51.6972
90.7350,51.7783
90.7540,51.8740
Z" /> 
<path style="fill:#000000; fill-opacity:1.0000; 
stroke:#000000; stroke-width:0.0000; stroke-opacity:1; 
stroke-linecap:round; stroke-linejoin:round;fill-rule:evenodd;"
d="M 88.7540,52.7740
88.7350,52.8697
88.6808,52.9508
88.5997,53.0050
88.5040,53.0240
87.8040,53.0240
87.7083,53.0050
87.6272,52.9508
87.5730,52.8697
87.5540,52.7740
87.5540,51.8740
87.5730,51.7783
87.6272,51.6972
87.7083,51.6430
87.8040,51.6240
88.5040,51.6240
88.5997,51.6430
88.6808,51.6972
88.7350,51.7783
88.7540,51.8740
Z" /> 
</g>
<g >
</g>
<g style="fill:#000000; fill-opacity:1.0000; 
stroke:#000000; stroke-width:0.0000; stroke-opacity:1; 
stroke-linecap:round; stroke-linejoin:round;">
<path style="fill:#000000; fill-opacity:1.0000; 
stroke:#000000; stroke-width:0.0000; stroke-opacity:1; 
stroke-linecap:round; stroke-linejoin:round;fill-rule:evenodd;"
d="M 75.4050,57.8110
75.5007,57.8300
75.5818,57.8842
75.6360,57.9653
75.6550,58.0610
75.6550,58.7360
75.6360,58.8317
75.5818,58.9128
75.5007,58.9670
75.4050,58.9860
74.4550,58.9860
74.3593,58.9670
74.2782,58.9128
74.2240,58.8317
74.2050,58.7360
74.2050,58.0610
74.2240,57.9653
74.2782,57.8842
74.3593,57.8300
74.4550,57.8110
Z" /> 
<path style="fill:#000000; fill-opacity:1.0000; 
stroke:#000000; stroke-width:0.0000; stroke-opacity:1; 
stroke-linecap:round; stroke-linejoin:round;fill-rule:evenodd;"
d="M 75.4050,59.8860
75.5007,59.9050
75.5818,59.9592
75.6360,60.0403
75.6550,60.1360
75.6550,60.8110
75.6360,60.9067
75.5818,60.9878
75.5007,61.0420
75.4050,61.0610
74.4550,61.0610
74.3593,61.0420
74.2782,60.9878
74.2240,60.9067
74.2050,60.8110
74.2050,60.1360
74.2240,60.0403
74.2782,59.9592
74.3593,59.9050
74.4550,59.8860
Z" /> 
</g>
<g >
</g>
<g style="fill:#000000; fill-opacity:1.0000; 
stroke:#000000; stroke-width:0.0000; stroke-opacity:1; 
stroke-linecap:round; stroke-linejoin:round;">
<path style="fill:#000000; fill-opacity:1.0000; 
stroke:#000000; stroke-width:0.0000; stroke-opacity:1; 
stroke-linecap:round; stroke-linejoin:round;fill-rule:evenodd;"
d="M 89.8710,58.2980
89.8710,59.4980
89.3210,59.4980
89.3210,58.2980
Z" /> 
<path style="fill:#000000; fill-opacity:1.0000; 
stroke:#000000; stroke-width:0.0000; stroke-opacity:1; 
stroke-linecap:round; stroke-linejoin:round;fill-rule:evenodd;"
d="M 88.9210,58.2980
88.9210,59.4980
88.3710,59.4980
88.3710,58.2980
Z" /> 
<path style="fill:#000000; fill-opacity:1.0000; 
stroke:#000000; stroke-width:0.0000; stroke-opacity:1; 
stroke-linecap:round; stroke-linejoin:round;fill-rule:evenodd;"
d="M 87.9710,58.2980
87.9710,59.4980
87.4210,59.4980
87.4210,58.2980
Z" /> 
<path style="fill:#000000; fill-opacity:1.0000; 
stroke:#000000; stroke-width:0.0000; stroke-opacity:1; 
stroke-linecap:round; stroke-linejoin:round;fill-rule:evenodd;"
d="M 87.9710,60.8980
87.9710,62.0980
87.4210,62.0980
87.4210,60.8980
Z" /> 
<path style="fill:#000000; fill-opacity:1.0000; 
stroke:#000000; stroke-width:0.0000; stroke-opacity:1; 
stroke-linecap:round; stroke-linejoin:round;fill-rule:evenodd;"
d="M 88.9210,60.8980
88.9210,62.0980
88.3710,62.0980
88.3710,60.8980
Z" /> 
<path style="fill:#000000; fill-opacity:1.0000; 
stroke:#000000; stroke-width:0.0000; stroke-opacity:1; 
stroke-linecap:round; stroke-linejoin:round;fill-rule:evenodd;"
d="M 89.8710,60.8980
89.8710,62.0980
89.3210,62.0980
89.3210,60.8980
Z" /> 
</g>
<g >
</g>
<g style="fill:#000000; fill-opacity:1.0000; 
stroke:#000000; stroke-width:0.0000; stroke-opacity:1; 
stroke-linecap:round; stroke-linejoin:round;">
<path style="fill:#000000; fill-opacity:1.0000; 
stroke:#000000; stroke-width:0.0000; stroke-opacity:1; 
stroke-linecap:round; stroke-linejoin:round;fill-rule:evenodd;"
d="M 77.8470,62.8960
77.8309,62.8928
77.8173,62.8837
77.8082,62.8701
77.8050,62.8540
77.8050,60.9680
77.8082,60.9519
77.8173,60.9383
77.8309,60.9292
77.8470,60.9260
78.3630,60.9260
78.3791,60.9292
78.3927,60.9383
78.4018,60.9519
78.4050,60.9680
78.4050,62.8540
78.4018,62.8701
78.3927,62.8837
78.3791,62.8928
78.3630,62.8960
Z" /> 
<path style="fill:#000000; fill-opacity:1.0000; 
stroke:#000000; stroke-width:0.0000; stroke-opacity:1; 
stroke-linecap:round; stroke-linejoin:round;fill-rule:evenodd;"
d="M 79.1170,62.8960
79.1009,62.8928
79.0873,62.8837
79.0782,62.8701
79.0750,62.8540
79.0750,60.9680
79.0782,60.9519
79.0873,60.9383
79.1009,60.9292
79.1170,60.9260
79.6330,60.9260
79.6491,60.9292
79.6627,60.9383
79.6718,60.9519
79.6750,60.9680
79.6750,62.8540
79.6718,62.8701
79.6627,62.8837
79.6491,62.8928
79.6330,62.8960
Z" /> 
<path style="fill:#000000; fill-opacity:1.0000; 
stroke:#000000; stroke-width:0.0000; stroke-opacity:1; 
stroke-linecap:round; stroke-linejoin:round;fill-rule:evenodd;"
d="M 80.3870,62.8960
80.3709,62.8928
80.3573,62.8837
80.3482,62.8701
80.3450,62.8540
80.3450,60.9680
80.3482,60.9519
80.3573,60.9383
80.3709,60.9292
80.3870,60.9260
80.9030,60.9260
80.9191,60.9292
80.9327,60.9383
80.9418,60.9519
80.9450,60.9680
80.9450,62.8540
80.9418,62.8701
80.9327,62.8837
80.9191,62.8928
80.9030,62.8960
Z" /> 
<path style="fill:#000000; fill-opacity:1.0000; 
stroke:#000000; stroke-width:0.0000; stroke-opacity:1; 
stroke-linecap:round; stroke-linejoin:round;fill-rule:evenodd;"
d="M 81.6570,62.8960
81.6409,62.8928
81.6273,62.8837
81.6182,62.8701
81.6150,62.8540
81.6150,60.9680
81.6182,60.9519
81.6273,60.9383
81.6409,60.9292
81.6570,60.9260
82.1730,60.9260
82.1891,60.9292
82.2027,60.9383
82.2118,60.9519
82.2150,60.9680
82.2150,62.8540
82.2118,62.8701
82.2027,62.8837
82.1891,62.8928
82.1730,62.8960
Z" /> 
<path style="fill:#000000; fill-opacity:1.0000; 
stroke:#000000; stroke-width:0.0000; stroke-opacity:1; 
stroke-linecap:round; stroke-linejoin:round;fill-rule:evenodd;"
d="M 81.6570,57.9460
81.6409,57.9428
81.6273,57.9337
81.6182,57.9201
81.6150,57.9040
81.6150,56.0180
81.6182,56.0019
81.6273,55.9883
81.6409,55.9792
81.6570,55.9760
82.1730,55.9760
82.1891,55.9792
82.2027,55.9883
82.2118,56.0019
82.2150,56.0180
82.2150,57.9040
82.2118,57.9201
82.2027,57.9337
82.1891,57.9428
82.1730,57.9460
Z" /> 
<path style="fill:#000000; fill-opacity:1.0000; 
stroke:#000000; stroke-width:0.0000; stroke-opacity:1; 
stroke-linecap:round; stroke-linejoin:round;fill-rule:evenodd;"
d="M 80.3870,57.9460
80.3709,57.9428
80.3573,57.9337
80.3482,57.9201
80.3450,57.9040
80.3450,56.0180
80.3482,56.0019
80.3573,55.9883
80.3709,55.9792
80.3870,55.9760
80.9030,55.9760
80.9191,55.9792
80.9327,55.9883
80.9418,56.0019
80.9450,56.0180
80.9450,57.9040
80.9418,57.9201
80.9327,57.9337
80.9191,57.9428
80.9030,57.9460
Z" /> 
<path style="fill:#000000; fill-opacity:1.0000; 
stroke:#000000; stroke-width:0.0000; stroke-opacity:1; 
stroke-linecap:round; stroke-linejoin:round;fill-rule:evenodd;"
d="M 79.1170,57.9460
79.1009,57.9428
79.0873,57.9337
79.0782,57.9201
79.0750,57.9040
79.0750,56.0180
79.0782,56.0019
79.0873,55.9883
79.1009,55.9792
79.1170,55.9760
79.6330,55.9760
79.6491,55.9792
79.6627,55.9883
79.6718,56.0019
79.6750,56.0180
79.6750,57.9040
79.6718,57.9201
79.6627,57.9337
79.6491,57.9428
79.6330,57.9460
Z" /> 
<path style="fill:#000000; fill-opacity:1.0000; 
stroke:#000000; stroke-width:0.0000; stroke-opacity:1; 
stroke-linecap:round; stroke-linejoin:round;fill-rule:evenodd;"
d="M 77.8470,57.9460
77.8309,57.9428
77.8173,57.9337
77.8082,57.9201
77.8050,57.9040
77.8050,56.0180
77.8082,56.0019
77.8173,55.9883
77.8309,55.9792
77.8470,55.9760
78.3630,55.9760
78.3791,55.9792
78.3927,55.9883
78.4018,56.0019
78.4050,56.0180
78.4050,57.9040
78.4018,57.9201
78.3927,57.9337
78.3791,57.9428
78.3630,57.9460
Z" /> 
<path style="fill:#000000; fill-opacity:1.0000; 
stroke:#000000; stroke-width:0.0000; stroke-opacity:1; 
stroke-linecap:round; stroke-linejoin:round;fill-rule:evenodd;"
d="M 81.6610,60.6425
78.3590,60.6425
78.3590,58.2295
81.6610,58.2295
Z" /> 
</g>
<g >
</g>
<g style="fill:#000000; fill-opacity:1.0000; 
stroke:#000000; stroke-width:0.0000; stroke-opacity:1; 
stroke-linecap:round; stroke-linejoin:round;">
<path style="fill:#000000; fill-opacity:1.0000; 
stroke:#000000; stroke-width:0.0000; stroke-opacity:1; 
stroke-linecap:round; stroke-linejoin:round;fill-rule:evenodd;"
d="M 68.1980,60.6390
68.2170,60.5433
68.2712,60.4622
68.3523,60.4080
68.4480,60.3890
69.1480,60.3890
69.2437,60.4080
69.3248,60.4622
69.3790,60.5433
69.3980,60.6390
69.3980,61.5390
69.3790,61.6347
69.3248,61.7158
69.2437,61.7700
69.1480,61.7890
68.4480,61.7890
68.3523,61.7700
68.2712,61.7158
68.2170,61.6347
68.1980,61.5390
Z" /> 
<path style="fill:#000000; fill-opacity:1.0000; 
stroke:#000000; stroke-width:0.0000; stroke-opacity:1; 
stroke-linecap:round; stroke-linejoin:round;fill-rule:evenodd;"
d="M 70.1980,60.6390
70.2170,60.5433
70.2712,60.4622
70.3523,60.4080
70.4480,60.3890
71.1480,60.3890
71.2437,60.4080
71.3248,60.4622
71.3790,60.5433
71.3980,60.6390
71.3980,61.5390
71.3790,61.6347
71.3248,61.7158
71.2437,61.7700
71.1480,61.7890
70.4480,61.7890
70.3523,61.7700
70.2712,61.7158
70.2170,61.6347
70.1980,61.5390
Z" /> 
</g>
<g >
</g>
<g style="fill:#000000; fill-opacity:1.0000; 
stroke:#000000; stroke-width:0.0000; stroke-opacity:1; 
stroke-linecap:round; stroke-linejoin:round;">
<path style="fill:#000000; fill-opacity:1.0000; 
stroke:#000000; stroke-width:0.0000; stroke-opacity:1; 
stroke-linecap:round; stroke-linejoin:round;fill-rule:evenodd;"
d="M 87.8260,64.2950
87.8450,64.1993
87.8992,64.1182
87.9803,64.0640
88.0760,64.0450
88.7510,64.0450
88.8467,64.0640
88.9278,64.1182
88.9820,64.1993
89.0010,64.2950
89.0010,65.2450
88.9820,65.3407
88.9278,65.4218
88.8467,65.4760
88.7510,65.4950
88.0760,65.4950
87.9803,65.4760
87.8992,65.4218
87.8450,65.3407
87.8260,65.2450
Z" /> 
<path style="fill:#000000; fill-opacity:1.0000; 
stroke:#000000; stroke-width:0.0000; stroke-opacity:1; 
stroke-linecap:round; stroke-linejoin:round;fill-rule:evenodd;"
d="M 85.7510,64.2950
85.7700,64.1993
85.8242,64.1182
85.9053,64.0640
86.0010,64.0450
86.6760,64.0450
86.7717,64.0640
86.8528,64.1182
86.9070,64.1993
86.9260,64.2950
86.9260,65.2450
86.9070,65.3407
86.8528,65.4218
86.7717,65.4760
86.6760,65.4950
86.0010,65.4950
85.9053,65.4760
85.8242,65.4218
85.7700,65.3407
85.7510,65.2450
Z" /> 
</g>
<g >
</g>
<g style="fill:#000000; fill-opacity:1.0000; 
stroke:#000000; stroke-width:0.0000; stroke-opacity:1; 
stroke-linecap:round; stroke-linejoin:round;">
<path style="fill:#000000; fill-opacity:1.0000; 
stroke:#000000; stroke-width:0.0000; stroke-opacity:1; 
stroke-linecap:round; stroke-linejoin:round;fill-rule:evenodd;"
d="M 68.1980,57.3370
68.2170,57.2413
68.2712,57.1602
68.3523,57.1060
68.4480,57.0870
69.1480,57.0870
69.2437,57.1060
69.3248,57.1602
69.3790,57.2413
69.3980,57.3370
69.3980,58.2370
69.3790,58.3327
69.3248,58.4138
69.2437,58.4680
69.1480,58.4870
68.4480,58.4870
68.3523,58.4680
68.2712,58.4138
68.2170,58.3327
68.1980,58.2370
Z" /> 
<path style="fill:#000000; fill-opacity:1.0000; 
stroke:#000000; stroke-width:0.0000; stroke-opacity:1; 
stroke-linecap:round; stroke-linejoin:round;fill-rule:evenodd;"
d="M 70.1980,57.3370
70.2170,57.2413
70.2712,57.1602
70.3523,57.1060
70.4480,57.0870
71.1480,57.0870
71.2437,57.1060
71.3248,57.1602
71.3790,57.2413
71.3980,57.3370
71.3980,58.2370
71.3790,58.3327
71.3248,58.4138
71.2437,58.4680
71.1480,58.4870
70.4480,58.4870
70.3523,58.4680
70.2712,58.4138
70.2170,58.3327
70.1980,58.2370
Z" /> 
</g>
<g >
</g>
<g style="fill:#000000; fill-opacity:1.0000; 
stroke:#000000; stroke-width:0.0000; stroke-opacity:1; 
stroke-linecap:round; stroke-linejoin:round;">
<path style="fill:#000000; fill-opacity:1.0000; 
stroke:#000000; stroke-width:0.0000; stroke-opacity:1; 
stroke-linecap:round; stroke-linejoin:round;fill-rule:evenodd;"
d="M 79.0700,53.7900
79.0510,53.8857
78.9968,53.9668
78.9157,54.0210
78.8200,54.0400
78.1200,54.0400
78.0243,54.0210
77.9432,53.9668
77.8890,53.8857
77.8700,53.7900
77.8700,52.8900
77.8890,52.7943
77.9432,52.7132
78.0243,52.6590
78.1200,52.6400
78.8200,52.6400
78.9157,52.6590
78.9968,52.7132
79.0510,52.7943
79.0700,52.8900
Z" /> 
<path style="fill:#000000; fill-opacity:1.0000; 
stroke:#000000; stroke-width:0.0000; stroke-opacity:1; 
stroke-linecap:round; stroke-linejoin:round;fill-rule:evenodd;"
d="M 77.0700,53.7900
77.0510,53.8857
76.9968,53.9668
76.9157,54.0210
76.8200,54.0400
76.1200,54.0400
76.0243,54.0210
75.9432,53.9668
75.8890,53.8857
75.8700,53.7900
75.8700,52.8900
75.8890,52.7943
75.9432,52.7132
76.0243,52.6590
76.1200,52.6400
76.8200,52.6400
76.9157,52.6590
76.9968,52.7132
77.0510,52.7943
77.0700,52.8900
Z" /> 
</g>
<g >
</g>
<g style="fill:#000000; fill-opacity:1.0000; 
stroke:#000000; stroke-width:0.0000; stroke-opacity:1; 
stroke-linecap:round; stroke-linejoin:round;">
<path style="fill:#000000; fill-opacity:1.0000; 
stroke:#000000; stroke-width:0.0000; stroke-opacity:1; 
stroke-linecap:round; stroke-linejoin:round;fill-rule:evenodd;"
d="M 101.2300,66.2860
101.2300,65.2860
103.7400,65.2860
103.7400,66.2860
Z" /> 
<path style="fill:#000000; fill-opacity:1.0000; 
stroke:#000000; stroke-width:0.0000; stroke-opacity:1; 
stroke-linecap:round; stroke-linejoin:round;fill-rule:evenodd;"
d="M 104.5400,68.8260
104.5400,67.8260
107.0500,67.8260
107.0500,68.8260
Z" /> 
</g>
<g >
</g>
<g style="fill:#000000; fill-opacity:1.0000; 
stroke:#000000; stroke-width:0.0000; stroke-opacity:1; 
stroke-linecap:round; stroke-linejoin:round;">
<path style="fill:#000000; fill-opacity:1.0000; 
stroke:#000000; stroke-width:0.0000; stroke-opacity:1; 
stroke-linecap:round; stroke-linejoin:round;fill-rule:evenodd;"
d="M 82.9820,49.0800
83.0010,48.9843
83.0552,48.9032
83.1363,48.8490
83.2320,48.8300
83.8820,48.8300
83.9777,48.8490
84.0588,48.9032
84.1130,48.9843
84.1320,49.0800
84.1320,49.9800
84.1130,50.0757
84.0588,50.1568
83.9777,50.2110
83.8820,50.2300
83.2320,50.2300
83.1363,50.2110
83.0552,50.1568
83.0010,50.0757
82.9820,49.9800
Z" /> 
<path style="fill:#000000; fill-opacity:1.0000; 
stroke:#000000; stroke-width:0.0000; stroke-opacity:1; 
stroke-linecap:round; stroke-linejoin:round;fill-rule:evenodd;"
d="M 85.0320,49.0800
85.0510,48.9843
85.1052,48.9032
85.1863,48.8490
85.2820,48.8300
85.9320,48.8300
86.0277,48.8490
86.1088,48.9032
86.1630,48.9843
86.1820,49.0800
86.1820,49.9800
86.1630,50.0757
86.1088,50.1568
86.0277,50.2110
85.9320,50.2300
85.2820,50.2300
85.1863,50.2110
85.1052,50.1568
85.0510,50.0757
85.0320,49.9800
Z" /> 
</g>
<g >
</g>
<g style="fill:#000000; fill-opacity:1.0000; 
stroke:#000000; stroke-width:0.0000; stroke-opacity:1; 
stroke-linecap:round; stroke-linejoin:round;">
<path style="fill:#000000; fill-opacity:1.0000; 
stroke:#000000; stroke-width:0.0000; stroke-opacity:1; 
stroke-linecap:round; stroke-linejoin:round;fill-rule:evenodd;"
d="M 81.2040,52.8900
81.2230,52.7943
81.2772,52.7132
81.3583,52.6590
81.4540,52.6400
82.1540,52.6400
82.2497,52.6590
82.3308,52.7132
82.3850,52.7943
82.4040,52.8900
82.4040,53.7900
82.3850,53.8857
82.3308,53.9668
82.2497,54.0210
82.1540,54.0400
81.4540,54.0400
81.3583,54.0210
81.2772,53.9668
81.2230,53.8857
81.2040,53.7900
Z" /> 
<path style="fill:#000000; fill-opacity:1.0000; 
stroke:#000000; stroke-width:0.0000; stroke-opacity:1; 
stroke-linecap:round; stroke-linejoin:round;fill-rule:evenodd;"
d="M 83.2040,52.8900
83.2230,52.7943
83.2772,52.7132
83.3583,52.6590
83.4540,52.6400
84.1540,52.6400
84.2497,52.6590
84.3308,52.7132
84.3850,52.7943
84.4040,52.8900
84.4040,53.7900
84.3850,53.8857
84.3308,53.9668
84.2497,54.0210
84.1540,54.0400
83.4540,54.0400
83.3583,54.0210
83.2772,53.9668
83.2230,53.8857
83.2040,53.7900
Z" /> 
</g>
<g >
</g>
<g style="fill:#000000; fill-opacity:1.0000; 
stroke:#000000; stroke-width:0.0000; stroke-opacity:1; 
stroke-linecap:round; stroke-linejoin:round;">
<path style="fill:#000000; fill-opacity:1.0000; 
stroke:#000000; stroke-width:0.0000; stroke-opacity:1; 
stroke-linecap:round; stroke-linejoin:round;fill-rule:evenodd;"
d="M 101.1030,56.7610
101.1030,55.7610
103.6130,55.7610
103.6130,56.7610
Z" /> 
<path style="fill:#000000; fill-opacity:1.0000; 
stroke:#000000; stroke-width:0.0000; stroke-opacity:1; 
stroke-linecap:round; stroke-linejoin:round;fill-rule:evenodd;"
d="M 104.4130,59.3010
104.4130,58.3010
106.9230,58.3010
106.9230,59.3010
Z" /> 
</g>
<g >
</g>
<g style="fill:#000000; fill-opacity:1.0000; 
stroke:#000000; stroke-width:0.0000; stroke-opacity:1; 
stroke-linecap:round; stroke-linejoin:round;">
<path style="fill:#000000; fill-opacity:1.0000; 
stroke:#000000; stroke-width:0.0000; stroke-opacity:1; 
stroke-linecap:round; stroke-linejoin:round;fill-rule:evenodd;"
d="M 78.4100,65.3360
78.4290,65.2403
78.4832,65.1592
78.5643,65.1050
78.6600,65.0860
79.3600,65.0860
79.4557,65.1050
79.5368,65.1592
79.5910,65.2403
79.6100,65.3360
79.6100,66.2360
79.5910,66.3317
79.5368,66.4128
79.4557,66.4670
79.3600,66.4860
78.6600,66.4860
78.5643,66.4670
78.4832,66.4128
78.4290,66.3317
78.4100,66.2360
Z" /> 
<path style="fill:#000000; fill-opacity:1.0000; 
stroke:#000000; stroke-width:0.0000; stroke-opacity:1; 
stroke-linecap:round; stroke-linejoin:round;fill-rule:evenodd;"
d="M 80.4100,65.3360
80.4290,65.2403
80.4832,65.1592
80.5643,65.1050
80.6600,65.0860
81.3600,65.0860
81.4557,65.1050
81.5368,65.1592
81.5910,65.2403
81.6100,65.3360
81.6100,66.2360
81.5910,66.3317
81.5368,66.4128
81.4557,66.4670
81.3600,66.4860
80.6600,66.4860
80.5643,66.4670
80.4832,66.4128
80.4290,66.3317
80.4100,66.2360
Z" /> 
</g>
<g >
</g>
<g style="fill:#000000; fill-opacity:1.0000; 
stroke:#000000; stroke-width:0.0000; stroke-opacity:1; 
stroke-linecap:round; stroke-linejoin:round;">
<path style="fill:#000000; fill-opacity:1.0000; 
stroke:#000000; stroke-width:0.0000; stroke-opacity:1; 
stroke-linecap:round; stroke-linejoin:round;fill-rule:evenodd;"
d="M 76.7840,49.9800
76.7650,50.0757
76.7108,50.1568
76.6297,50.2110
76.5340,50.2300
75.8840,50.2300
75.7883,50.2110
75.7072,50.1568
75.6530,50.0757
75.6340,49.9800
75.6340,49.0800
75.6530,48.9843
75.7072,48.9032
75.7883,48.8490
75.8840,48.8300
76.5340,48.8300
76.6297,48.8490
76.7108,48.9032
76.7650,48.9843
76.7840,49.0800
Z" /> 
<path style="fill:#000000; fill-opacity:1.0000; 
stroke:#000000; stroke-width:0.0000; stroke-opacity:1; 
stroke-linecap:round; stroke-linejoin:round;fill-rule:evenodd;"
d="M 74.7340,49.9800
74.7150,50.0757
74.6608,50.1568
74.5797,50.2110
74.4840,50.2300
73.8340,50.2300
73.7383,50.2110
73.6572,50.1568
73.6030,50.0757
73.5840,49.9800
73.5840,49.0800
73.6030,48.9843
73.6572,48.9032
73.7383,48.8490
73.8340,48.8300
74.4840,48.8300
74.5797,48.8490
74.6608,48.9032
74.7150,48.9843
74.7340,49.0800
Z" /> 
</g>
<g >
</g>
<g style="fill:#000000; fill-opacity:1.0000; 
stroke:#000000; stroke-width:0.0000; stroke-opacity:1; 
stroke-linecap:round; stroke-linejoin:round;">
<path style="fill:#000000; fill-opacity:1.0000; 
stroke:#000000; stroke-width:0.0000; stroke-opacity:1; 
stroke-linecap:round; stroke-linejoin:round;fill-rule:evenodd;"
d="M 96.9130,62.0440
96.9207,62.0455
96.9271,62.0499
96.9315,62.0563
96.9330,62.0640
96.9330,63.5840
96.9315,63.5917
96.9271,63.5981
96.9207,63.6025
96.9130,63.6040
96.5530,63.6040
96.5453,63.6025
96.5389,63.5981
96.5345,63.5917
96.5330,63.5840
96.5330,62.0640
96.5345,62.0563
96.5389,62.0499
96.5453,62.0455
96.5530,62.0440
Z" /> 
<path style="fill:#000000; fill-opacity:1.0000; 
stroke:#000000; stroke-width:0.0000; stroke-opacity:1; 
stroke-linecap:round; stroke-linejoin:round;fill-rule:evenodd;"
d="M 96.2630,62.0440
96.2707,62.0455
96.2771,62.0499
96.2815,62.0563
96.2830,62.0640
96.2830,63.5840
96.2815,63.5917
96.2771,63.5981
96.2707,63.6025
96.2630,63.6040
95.9030,63.6040
95.8953,63.6025
95.8889,63.5981
95.8845,63.5917
95.8830,63.5840
95.8830,62.0640
95.8845,62.0563
95.8889,62.0499
95.8953,62.0455
95.9030,62.0440
Z" /> 
<path style="fill:#000000; fill-opacity:1.0000; 
stroke:#000000; stroke-width:0.0000; stroke-opacity:1; 
stroke-linecap:round; stroke-linejoin:round;fill-rule:evenodd;"
d="M 95.6130,62.0440
95.6207,62.0455
95.6271,62.0499
95.6315,62.0563
95.6330,62.0640
95.6330,63.5840
95.6315,63.5917
95.6271,63.5981
95.6207,63.6025
95.6130,63.6040
95.2530,63.6040
95.2453,63.6025
95.2389,63.5981
95.2345,63.5917
95.2330,63.5840
95.2330,62.0640
95.2345,62.0563
95.2389,62.0499
95.2453,62.0455
95.2530,62.0440
Z" /> 
<path style="fill:#000000; fill-opacity:1.0000; 
stroke:#000000; stroke-width:0.0000; stroke-opacity:1; 
stroke-linecap:round; stroke-linejoin:round;fill-rule:evenodd;"
d="M 94.9630,62.0440
94.9707,62.0455
94.9771,62.0499
94.9815,62.0563
94.9830,62.0640
94.9830,63.5840
94.9815,63.5917
94.9771,63.5981
94.9707,63.6025
94.9630,63.6040
94.6030,63.6040
94.5953,63.6025
94.5889,63.5981
94.5845,63.5917
94.5830,63.5840
94.5830,62.0640
94.5845,62.0563
94.5889,62.0499
94.5953,62.0455
94.6030,62.0440
Z" /> 
<path style="fill:#000000; fill-opacity:1.0000; 
stroke:#000000; stroke-width:0.0000; stroke-opacity:1; 
stroke-linecap:round; stroke-linejoin:round;fill-rule:evenodd;"
d="M 94.9630,56.2840
94.9707,56.2855
94.9771,56.2899
94.9815,56.2963
94.9830,56.3040
94.9830,57.8240
94.9815,57.8317
94.9771,57.8381
94.9707,57.8425
94.9630,57.8440
94.6030,57.8440
94.5953,57.8425
94.5889,57.8381
94.5845,57.8317
94.5830,57.8240
94.5830,56.3040
94.5845,56.2963
94.5889,56.2899
94.5953,56.2855
94.6030,56.2840
Z" /> 
<path style="fill:#000000; fill-opacity:1.0000; 
stroke:#000000; stroke-width:0.0000; stroke-opacity:1; 
stroke-linecap:round; stroke-linejoin:round;fill-rule:evenodd;"
d="M 95.6130,56.2840
95.6207,56.2855
95.6271,56.2899
95.6315,56.2963
95.6330,56.3040
95.6330,57.8240
95.6315,57.8317
95.6271,57.8381
95.6207,57.8425
95.6130,57.8440
95.2530,57.8440
95.2453,57.8425
95.2389,57.8381
95.2345,57.8317
95.2330,57.8240
95.2330,56.3040
95.2345,56.2963
95.2389,56.2899
95.2453,56.2855
95.2530,56.2840
Z" /> 
<path style="fill:#000000; fill-opacity:1.0000; 
stroke:#000000; stroke-width:0.0000; stroke-opacity:1; 
stroke-linecap:round; stroke-linejoin:round;fill-rule:evenodd;"
d="M 96.2630,56.2840
96.2707,56.2855
96.2771,56.2899
96.2815,56.2963
96.2830,56.3040
96.2830,57.8240
96.2815,57.8317
96.2771,57.8381
96.2707,57.8425
96.2630,57.8440
95.9030,57.8440
95.8953,57.8425
95.8889,57.8381
95.8845,57.8317
95.8830,57.8240
95.8830,56.3040
95.8845,56.2963
95.8889,56.2899
95.8953,56.2855
95.9030,56.2840
Z" /> 
<path style="fill:#000000; fill-opacity:1.0000; 
stroke:#000000; stroke-width:0.0000; stroke-opacity:1; 
stroke-linecap:round; stroke-linejoin:round;fill-rule:evenodd;"
d="M 96.9130,56.2840
96.9207,56.2855
96.9271,56.2899
96.9315,56.2963
96.9330,56.3040
96.9330,57.8240
96.9315,57.8317
96.9271,57.8381
96.9207,57.8425
96.9130,57.8440
96.5530,57.8440
96.5453,57.8425
96.5389,57.8381
96.5345,57.8317
96.5330,57.8240
96.5330,56.3040
96.5345,56.2963
96.5389,56.2899
96.5453,56.2855
96.5530,56.2840
Z" /> 
</g>
<g >
</g>
<g style="fill:#000000; fill-opacity:1.0000; 
stroke:#000000; stroke-width:0.0000; stroke-opacity:1; 
stroke-linecap:round; stroke-linejoin:round;">
<circle cx="105.6640" cy="71.3740" r="0.4000" /> 
</g>
<g style="fill:#000000; fill-opacity:1.0000; 
stroke:#000000; stroke-width:0.0212; stroke-opacity:1; 
stroke-linecap:round; stroke-linejoin:round;">
</g>
<g style="fill:#000000; fill-opacity:1.0000; 
stroke:#000000; stroke-width:0.0000; stroke-opacity:1; 
stroke-linecap:round; stroke-linejoin:round;">
<circle cx="105.6640" cy="52.3240" r="0.4000" /> 
</g>
<g style="fill:#000000; fill-opacity:1.0000; 
stroke:#000000; stroke-width:0.0212; stroke-opacity:1; 
stroke-linecap:round; stroke-linejoin:round;">
</g>
<g style="fill:#000000; fill-opacity:1.0000; 
stroke:#000000; stroke-width:0.0000; stroke-opacity:1; 
stroke-linecap:round; stroke-linejoin:round;">
<circle cx="95.5040" cy="64.5160" r="0.4000" /> 
</g>
<g style="fill:#000000; fill-opacity:1.0000; 
stroke:#000000; stroke-width:0.0212; stroke-opacity:1; 
stroke-linecap:round; stroke-linejoin:round;">
</g>
<g style="fill:#000000; fill-opacity:1.0000; 
stroke:#000000; stroke-width:0.0000; stroke-opacity:1; 
stroke-linecap:round; stroke-linejoin:round;">
<circle cx="92.2020" cy="56.1340" r="0.4000" /> 
</g>
<g style="fill:#000000; fill-opacity:1.0000; 
stroke:#000000; stroke-width:0.0212; stroke-opacity:1; 
stroke-linecap:round; stroke-linejoin:round;">
</g>
<g style="fill:#000000; fill-opacity:1.0000; 
stroke:#000000; stroke-width:0.0000; stroke-opacity:1; 
stroke-linecap:round; stroke-linejoin:round;">
<circle cx="80.7720" cy="64.0080" r="0.4000" /> 
</g>
<g style="fill:#000000; fill-opacity:1.0000; 
stroke:#000000; stroke-width:0.0212; stroke-opacity:1; 
stroke-linecap:round; stroke-linejoin:round;">
</g>
<g style="fill:#000000; fill-opacity:1.0000; 
stroke:#000000; stroke-width:0.0000; stroke-opacity:1; 
stroke-linecap:round; stroke-linejoin:round;">
<circle cx="74.4220" cy="62.2300" r="0.4000" /> 
</g>
<g style="fill:#000000; fill-opacity:1.0000; 
stroke:#000000; stroke-width:0.0212; stroke-opacity:1; 
stroke-linecap:round; stroke-linejoin:round;">
</g>
<g style="fill:#000000; fill-opacity:1.0000; 
stroke:#000000; stroke-width:0.0000; stroke-opacity:1; 
stroke-linecap:round; stroke-linejoin:round;">
<circle cx="71.3740" cy="62.9920" r="0.4000" /> 
</g>
<g style="fill:#000000; fill-opacity:1.0000; 
stroke:#000000; stroke-width:0.0212; stroke-opacity:1; 
stroke-linecap:round; stroke-linejoin:round;">
</g>
<g style="fill:#000000; fill-opacity:1.0000; 
stroke:#000000; stroke-width:0.0000; stroke-opacity:1; 
stroke-linecap:round; stroke-linejoin:round;">
<circle cx="71.3740" cy="55.8800" r="0.4000" /> 
</g>
<g style="fill:#000000; fill-opacity:1.0000; 
stroke:#000000; stroke-width:0.0212; stroke-opacity:1; 
stroke-linecap:round; stroke-linejoin:round;">
</g>
<g >
</g>
<g style="fill:#000000; fill-opacity:1.0000; 
stroke:#000000; stroke-width:0.0212; stroke-opacity:1; 
stroke-linecap:round; stroke-linejoin:round;">
</g>
<g style="fill:#000000; fill-opacity:1.0000; 
stroke:#000000; stroke-width:0.6000; stroke-opacity:1; 
stroke-linecap:round; stroke-linejoin:round;">
</g>
<g style="fill:#000000; fill-opacity:0.0; 
stroke:#000000; stroke-width:0.6000; stroke-opacity:1; 
stroke-linecap:round; stroke-linejoin:round;">
<path d="M78.1050 61.2135
L78.1050 61.9110
" />
<path d="M79.8825 59.4360
L78.1050 61.2135
" />
<path d="M80.0100 59.4360
L79.8825 59.4360
" />
<path d="M64.0080 61.8880
L65.5130 61.8880
" />
<path d="M62.9920 60.8720
L64.0080 61.8880
" />
<path d="M62.9920 58.1840
L62.9920 60.8720
" />
<path d="M64.1880 56.9880
L62.9920 58.1840
" />
<path d="M65.5130 56.9880
L64.1880 56.9880
" />
<path d="M80.6450 60.0710
L80.6450 61.9110
" />
<path d="M80.0100 59.4360
L80.6450 60.0710
" />
</g>
<g style="fill:#000000; fill-opacity:0.0; 
stroke:#000000; stroke-width:1.0000; stroke-opacity:1; 
stroke-linecap:round; stroke-linejoin:round;">
<path d="M94.6415 53.6945
L92.2020 56.1340
" />
<path d="M95.5040 53.6945
L94.6415 53.6945
" />
<path d="M95.5040 51.9695
L95.5040 51.0540
" />
<path d="M96.5200 50.0380
L97.5360 50.0380
" />
<path d="M95.5040 51.0540
L96.5200 50.0380
" />
</g>
<g style="fill:#000000; fill-opacity:0.0; 
stroke:#000000; stroke-width:0.4000; stroke-opacity:1; 
stroke-linecap:round; stroke-linejoin:round;">
<path d="M95.5040 64.0330
L95.4330 63.9620
" />
<path d="M95.5040 64.5160
L95.5040 64.0330
" />
<path d="M95.4330 63.9620
L95.4330 62.8240
" />
<path d="M102.4890 58.8010
L102.6160 58.8010
" />
<path d="M98.8060 55.1180
L102.4890 58.8010
" />
<path d="M96.0830 55.3940
L96.3590 55.1180
" />
<path d="M96.0830 57.0640
L96.0830 55.3940
" />
</g>
<g style="fill:#000000; fill-opacity:0.0; 
stroke:#000000; stroke-width:0.6000; stroke-opacity:1; 
stroke-linecap:round; stroke-linejoin:round;">
<path d="M93.5580 57.0640
L94.7330 57.0640
" />
<path d="M91.7240 58.8980
L93.5580 57.0640
" />
<path d="M89.5960 58.8980
L91.7240 58.8980
" />
<path d="M94.0660 62.8240
L94.7330 62.8240
" />
<path d="M87.9960 60.3980
L91.6400 60.3980
" />
<path d="M87.6960 60.0980
L87.9960 60.3980
" />
<path d="M87.6960 58.8980
L87.6960 60.0980
" />
</g>
<g style="fill:#000000; fill-opacity:0.0; 
stroke:#000000; stroke-width:0.4000; stroke-opacity:1; 
stroke-linecap:round; stroke-linejoin:round;">
<path d="M96.3590 55.1180
L98.8060 55.1180
" />
</g>
<g style="fill:#000000; fill-opacity:0.0; 
stroke:#000000; stroke-width:0.6000; stroke-opacity:1; 
stroke-linecap:round; stroke-linejoin:round;">
<path d="M91.6400 60.3980
L94.0660 62.8240
" />
</g>
<g style="fill:#000000; fill-opacity:0.0; 
stroke:#000000; stroke-width:1.0000; stroke-opacity:1; 
stroke-linecap:round; stroke-linejoin:round;">
<path d="M105.7950 68.3260
L105.7950 71.2430
" />
<path d="M105.7950 71.2430
L105.6640 71.3740
" />
<path d="M105.5410 52.2010
L105.6640 52.3240
" />
<path d="M105.5410 49.2760
L105.5410 52.2010
" />
</g>
<g style="fill:#000000; fill-opacity:0.0; 
stroke:#000000; stroke-width:0.6000; stroke-opacity:1; 
stroke-linecap:round; stroke-linejoin:round;">
<path d="M97.2820 65.7860
L102.6160 60.4520
" />
<path d="M102.6160 60.4520
L102.6160 58.8010
" />
<path d="M89.4295 65.7860
L97.2820 65.7860
" />
<path d="M88.4135 64.7700
L89.4295 65.7860
" />
<path d="M90.4080 56.1340
L92.2020 56.1340
" />
<path d="M80.6450 63.8810
L80.7720 64.0080
" />
<path d="M80.6450 61.9110
L80.6450 63.8810
" />
<path d="M80.7720 64.0080
L80.7720 65.5480
" />
<path d="M80.7720 65.5480
L81.0100 65.7860
" />
<path d="M74.9300 61.7220
L74.4220 62.2300
" />
<path d="M74.9300 60.4735
L74.9300 61.7220
" />
<path d="M70.7980 62.4160
L71.3740 62.9920
" />
<path d="M70.7980 61.0890
L70.7980 62.4160
" />
<path d="M70.7980 56.4560
L71.3740 55.8800
" />
<path d="M70.7980 57.7870
L70.7980 56.4560
" />
</g>
<g style="fill:#000000; fill-opacity:0.0; 
stroke:#000000; stroke-width:1.0000; stroke-opacity:1; 
stroke-linecap:round; stroke-linejoin:round;">
<path d="M102.3580 55.1140
L97.5360 50.2920
" />
<path d="M97.5360 50.2920
L97.5360 50.0380
" />
<path d="M102.3580 56.2610
L102.3580 55.1140
" />
<path d="M97.5360 50.0380
L100.8380 46.7360
" />
<path d="M90.2965 50.0380
L97.5360 50.0380
" />
<path d="M88.1540 52.1805
L90.2965 50.0380
" />
<path d="M100.8380 46.7360
L102.2310 46.7360
" />
<path d="M88.1540 52.3240
L88.1540 52.1805
" />
<path d="M82.9930 56.9610
L81.9150 56.9610
" />
<path d="M87.6300 52.3240
L82.9930 56.9610
" />
<path d="M88.1540 52.3240
L87.6300 52.3240
" />
</g>
<g style="fill:#000000; fill-opacity:0.0; 
stroke:#000000; stroke-width:0.6000; stroke-opacity:1; 
stroke-linecap:round; stroke-linejoin:round;">
<path d="M79.3750 61.9110
L79.3750 65.4210
" />
<path d="M79.3750 65.4210
L79.0100 65.7860
" />
</g>
<g style="fill:#000000; fill-opacity:0.0; 
stroke:#000000; stroke-width:0.4000; stroke-opacity:1; 
stroke-linecap:round; stroke-linejoin:round;">
<path d="M102.6160 58.8010
L105.6680 58.8010
" />
</g>
<g style="fill:#000000; fill-opacity:0.0; 
stroke:#000000; stroke-width:0.6000; stroke-opacity:1; 
stroke-linecap:round; stroke-linejoin:round;">
<path d="M89.5960 62.8040
L89.5960 61.4980
" />
<path d="M88.4135 63.9865
L89.5960 62.8040
" />
<path d="M88.4135 64.7700
L88.4135 63.9865
" />
<path d="M86.3600 62.0370
L87.4312 63.1082
" />
<path d="M86.3600 55.6260
L86.3600 62.0370
" />
<path d="M89.1540 54.1020
L87.8840 54.1020
" />
<path d="M90.1540 53.1020
L89.1540 54.1020
" />
<path d="M90.1540 52.3240
L90.1540 53.1020
" />
<path d="M87.8840 54.1020
L86.3600 55.6260
" />
<path d="M87.4312 63.1082
L88.0002 63.1082
" />
<path d="M86.3385 64.7700
L88.0002 63.1082
" />
<path d="M88.0002 63.1082
L88.6460 62.4625
" />
<path d="M88.6460 56.3720
L88.6460 58.8980
" />
<path d="M88.4080 56.1340
L88.6460 56.3720
" />
<path d="M88.6460 62.4625
L88.6460 61.4980
" />
<path d="M83.5570 49.5300
L83.5570 53.0930
" />
<path d="M83.5570 53.0930
L83.8040 53.3400
" />
<path d="M76.2090 53.0790
L76.4700 53.3400
" />
<path d="M76.2090 49.5300
L76.2090 53.0790
" />
<path d="M80.6450 54.4990
L80.6450 56.9610
" />
<path d="M81.8040 53.3400
L80.6450 54.4990
" />
<path d="M79.3750 54.2450
L79.3750 56.9610
" />
<path d="M78.4700 53.3400
L79.3750 54.2450
" />
<path d="M65.5130 62.8430
L64.5980 63.7580
" />
<path d="M65.5130 62.6880
L65.5130 62.8430
" />
<path d="M65.5130 56.0330
L64.5980 55.1180
" />
<path d="M65.5130 56.1880
L65.5130 56.0330
" />
</g>
<g style="fill:#000000; fill-opacity:0.0; 
stroke:#000000; stroke-width:0.2000; stroke-opacity:1; 
stroke-linecap:round; stroke-linejoin:round;">
<path d="M66.4880 60.1880
L65.5130 60.1880
" />
<path d="M66.4880 59.1880
L66.5380 59.2380
" />
<path d="M66.5380 60.1380
L66.4880 60.1880
" />
<path d="M65.5130 59.1880
L66.4880 59.1880
" />
<path d="M66.5380 59.2380
L66.5380 60.1380
" />
<path d="M64.5140 59.6880
L65.5130 59.6880
" />
<path d="M64.4880 59.6620
L64.5140 59.6880
" />
<path d="M64.5380 58.6880
L64.4880 58.7380
" />
<path d="M64.4880 58.7380
L64.4880 59.6620
" />
<path d="M65.5130 58.6880
L64.5380 58.6880
" />
<path d="M68.6990 61.1880
L68.7980 61.0890
" />
<path d="M65.5130 61.1880
L68.6990 61.1880
" />
<path d="M68.3970 58.1880
L68.7980 57.7870
" />
<path d="M65.5130 58.1880
L68.3970 58.1880
" />
</g>
<g >
</g>
<g style="fill:#000000; fill-opacity:0.0; 
stroke:#000000; stroke-width:0.2000; stroke-opacity:1; 
stroke-linecap:round; stroke-linejoin:round;">
<g >
</g>
<g style="fill:#000000; fill-opacity:1.0000; 
stroke:#000000; stroke-width:0.0000; stroke-opacity:1; 
stroke-linecap:round; stroke-linejoin:round;">
<path style="fill:#000000; fill-opacity:1.0000; 
stroke:#000000; stroke-width:0.0000; stroke-opacity:1; 
stroke-linecap:round; stroke-linejoin:round;fill-rule:evenodd;"
d="M 109.1625,43.2002
109.2083,43.2530
109.2195,43.3045
109.2195,73.5355
109.1998,73.6025
109.1470,73.6483
109.0955,73.6595
58.5445,73.6595
58.4775,73.6398
58.4317,73.5870
58.4205,73.5355
58.4205,68.8739
104.0395,68.8739
104.0395,68.8739
104.0459,68.9335
104.0962,69.0683
104.0962,69.0683
104.1825,69.1835
104.1825,69.1835
104.2977,69.2698
104.2977,69.2698
104.3426,69.2866
104.4325,69.3201
104.4921,69.3265
104.6705,69.3265
104.7375,69.3462
104.7833,69.3990
104.7945,69.4505
104.7945,70.8472
104.7804,70.9046
104.7301,71.0009
104.6741,71.1966
104.6587,71.3995
104.6587,71.3995
104.6844,71.6013
104.6844,71.6013
104.7502,71.7939
104.7502,71.7939
104.8534,71.9692
104.8534,71.9692
104.9898,72.1202
105.1538,72.2406
105.1538,72.2406
105.1538,72.2406
105.3387,72.3256
105.4045,72.3409
105.5369,72.3716
105.7404,72.3768
105.7404,72.3768
105.7404,72.3768
105.9199,72.3446
105.9406,72.3409
105.9406,72.3409
105.9407,72.3409
106.1296,72.2654
106.1671,72.2406
106.2995,72.1534
106.2995,72.1534
106.2995,72.1534
106.4930,71.9600
106.4940,71.9589
106.5581,71.8981
106.5931,71.8477
106.5959,71.8439
106.5996,71.8394
106.6347,71.7964
106.6506,71.7660
106.6547,71.7592
106.6595,71.7523
106.6743,71.7310
106.6985,71.6747
106.7005,71.6704
106.7289,71.6160
106.7384,71.5830
106.7410,71.5756
106.7545,71.5441
106.7669,71.4839
106.7680,71.4794
106.7849,71.4204
106.7875,71.3862
106.7886,71.3784
106.7955,71.3447
106.7955,71.2834
106.7957,71.2787
106.8003,71.2175
106.7960,71.1834
106.7955,71.1756
106.7955,69.4505
106.8152,69.3835
106.8680,69.3377
106.9195,69.3265
107.0979,69.3265
107.0979,69.3265
107.1575,69.3201
107.2923,69.2698
107.4075,69.1835
107.4938,69.0683
107.5441,68.9335
107.5505,68.8739
107.5505,67.7781
107.5441,67.7185
107.4938,67.5837
107.4938,67.5837
107.4938,67.5837
107.4075,67.4685
107.4075,67.4685
107.2923,67.3822
107.2923,67.3822
107.1575,67.3319
107.1575,67.3319
107.0979,67.3255
107.0979,67.3255
107.0979,67.3255
107.0979,67.3255
105.8219,67.3255
105.8188,67.3254
105.7441,67.3216
105.7441,67.3216
105.7441,67.3216
105.7281,67.3241
105.7094,67.3255
104.4921,67.3255
104.4921,67.3255
104.4325,67.3319
104.2977,67.3822
104.2977,67.3822
104.1825,67.4685
104.1825,67.4685
104.0962,67.5837
104.0962,67.5837
104.0459,67.7185
104.0395,67.7781
104.0395,67.7781
104.0395,67.7781
104.0395,68.8739
58.4205,68.8739
58.4205,63.8089
59.1136,63.8089
59.1444,64.0101
59.1444,64.0101
59.2151,64.2009
59.2151,64.2009
59.2151,64.2009
59.2549,64.2647
59.3227,64.3736
59.3227,64.3736
59.3227,64.3736
59.4629,64.5211
59.5790,64.6019
59.6299,64.6373
59.6299,64.6373
59.6300,64.6373
59.8169,64.7175
60.0163,64.7585
60.7687,64.7585
60.9204,64.7431
61.1146,64.6822
61.1146,64.6822
61.1146,64.6822
61.2925,64.5834
61.4469,64.4509
61.5714,64.2900
61.6611,64.1073
61.7121,63.9103
61.7172,63.8089
63.0436,63.8089
63.0744,64.0101
63.0744,64.0101
63.1451,64.2009
63.1451,64.2009
63.1451,64.2009
63.1849,64.2647
63.2527,64.3736
63.2527,64.3736
63.2527,64.3736
63.3929,64.5211
63.5090,64.6019
63.5599,64.6373
63.5600,64.6373
63.5600,64.6373
63.7469,64.7175
63.9463,64.7585
65.1987,64.7585
65.3504,64.7431
65.5446,64.6822
65.5446,64.6822
65.5446,64.6822
65.7225,64.5834
65.8769,64.4509
66.0014,64.2900
66.0911,64.1073
66.1421,63.9103
66.1524,63.7071
66.1459,63.6649
66.1408,63.6313
66.1501,63.5620
66.1953,63.5088
66.2622,63.4885
66.2633,63.4885
66.2859,63.4885
66.2859,63.4885
66.3455,63.4821
66.4803,63.4318
66.5955,63.3455
66.6818,63.2303
66.7321,63.0955
66.7385,63.0359
66.7385,62.3401
66.7341,62.2989
66.7341,62.2724
66.7380,62.2358
66.7380,62.2358
66.7380,62.1380
66.7379,62.1379
66.6711,62.1183
66.6389,62.0883
66.5955,62.0305
66.5859,62.0232
66.5723,62.0131
66.5706,62.0118
66.5287,61.9558
66.5237,61.8861
66.5572,61.8248
66.6185,61.7913
66.6449,61.7885
67.6516,61.7885
67.7187,61.8082
67.7579,61.8531
67.7594,61.8522
67.7632,61.8583
67.7632,61.8583
67.8553,62.0077
67.9793,62.1317
68.1287,62.2238
68.2952,62.2790
68.3980,62.2895
69.1980,62.2895
69.1980,62.2895
69.1980,62.2895
69.2543,62.2837
69.3008,62.2790
69.4673,62.2238
69.6167,62.1317
69.7103,62.0380
69.7716,62.0046
69.8413,62.0095
69.8857,62.0380
69.9612,62.1135
69.9947,62.1749
69.9975,62.2012
69.9975,62.5062
69.9975,62.5062
70.0068,62.5469
70.0080,62.5538
70.0126,62.5953
70.0264,62.6347
70.0283,62.6413
70.0376,62.6821
70.0558,62.7197
70.0584,62.7261
70.0722,62.7655
70.0944,62.8009
70.0978,62.8070
70.1159,62.8446
70.1419,62.8772
70.1460,62.8829
70.1682,62.9183
70.1682,62.9183
70.4953,63.2453
70.5255,63.2947
70.5468,63.3603
70.5468,63.3603
70.6415,63.5242
70.7495,63.6442
70.7681,63.6649
70.9213,63.7761
70.9213,63.7762
71.0942,63.8531
71.0942,63.8531
71.2794,63.8925
71.2794,63.8925
71.4686,63.8925
71.4686,63.8925
71.6538,63.8531
71.8267,63.7762
71.9799,63.6649
72.1065,63.5242
72.2012,63.3603
72.2597,63.1803
72.2795,62.9920
72.2597,62.8037
72.2012,62.6237
72.1065,62.4598
71.9799,62.3191
71.9578,62.3031
71.8572,62.2300
73.5165,62.2300
73.5363,62.4183
73.5363,62.4183
73.5948,62.5983
73.5948,62.5983
73.6895,62.7622
73.7955,62.8800
73.8161,62.9029
73.9693,63.0141
73.9693,63.0142
74.1422,63.0911
74.1422,63.0911
74.3274,63.1305
74.3274,63.1305
74.5166,63.1305
74.5166,63.1305
74.7018,63.0911
74.8747,63.0142
75.0279,62.9029
75.1545,62.7622
75.2288,62.6335
75.2492,62.5983
75.2492,62.5983
75.2492,62.5983
75.2705,62.5327
75.3007,62.4833
75.5278,62.2563
75.5278,62.2563
75.5598,62.2243
75.5598,62.2243
75.5641,62.2200
75.5666,62.2134
75.5820,62.1889
75.5861,62.1832
75.6121,62.1506
75.6302,62.1129
75.6336,62.1069
75.6558,62.0715
75.6696,62.0321
75.6722,62.0257
75.6783,62.0131
75.6904,61.9881
75.6997,61.9473
75.7016,61.9407
75.7154,61.9013
75.7200,61.8597
75.7212,61.8529
75.7305,61.8122
75.7305,61.6318
75.7305,61.6318
75.7305,61.5612
75.7502,61.4942
75.7894,61.4557
75.8737,61.4037
75.8737,61.4037
75.8737,61.4037
75.8737,61.4037
75.9977,61.2797
76.0898,61.1303
76.1450,60.9638
76.1555,60.8610
76.1555,60.0860
76.1450,59.9832
76.0898,59.8167
75.9977,59.6673
75.8737,59.5433
75.8703,59.5412
75.8685,59.5392
75.8680,59.5388
75.8681,59.5387
75.8236,59.4893
75.8124,59.4203
75.8402,59.3563
75.8703,59.3302
75.8733,59.3283
75.9973,59.2043
76.0894,59.0551
76.0894,59.0551
76.1445,58.8887
76.1445,58.8887
76.1550,58.7860
76.1550,58.7860
76.1550,58.6485
73.7050,58.6485
73.7050,58.7860
73.7155,58.8887
73.7706,59.0551
73.7706,59.0551
73.8627,59.2043
73.9867,59.3283
73.9867,59.3283
73.9897,59.3302
73.9913,59.3320
73.9923,59.3328
73.9922,59.3330
74.0364,59.3821
74.0476,59.4511
74.0198,59.5152
73.9897,59.5412
73.9863,59.5433
73.9863,59.5433
73.8623,59.6673
73.7702,59.8167
73.7702,59.8167
73.7464,59.8885
73.7150,59.9832
73.7150,59.9832
73.7150,59.9832
73.7045,60.0860
73.7045,60.8610
73.7045,60.8610
73.7150,60.9638
73.7150,60.9638
73.7556,61.0863
73.7702,61.1303
73.8346,61.2348
73.8623,61.2797
73.9009,61.3183
73.9344,61.3796
73.9294,61.4493
73.8875,61.5052
73.8861,61.5063
73.8161,61.5571
73.6895,61.6978
73.5948,61.8617
73.5948,61.8617
73.5363,62.0417
73.5363,62.0417
73.5165,62.2300
71.8572,62.2300
71.8267,62.2079
71.8267,62.2079
71.8267,62.2078
71.7919,62.1923
71.7387,62.1471
71.7183,62.0802
71.7371,62.0139
71.7369,62.0138
71.7374,62.0131
71.7374,62.0130
71.7376,62.0128
71.7407,62.0077
71.7407,62.0077
71.8328,61.8583
71.8880,61.6918
71.8985,61.5890
71.8985,60.5890
71.8977,60.5811
71.8880,60.4862
71.8880,60.4862
71.8709,60.4346
71.8328,60.3197
71.7407,60.1703
71.6167,60.0463
71.5144,59.9832
71.4673,59.9542
71.4673,59.9542
71.4659,59.9537
71.3008,59.8990
71.3008,59.8990
71.1980,59.8885
70.3980,59.8885
70.3980,59.8885
70.2952,59.8990
70.2952,59.8990
70.1287,59.9542
70.1287,59.9542
69.9793,60.0463
69.8857,60.1400
69.8244,60.1734
69.7547,60.1685
69.7103,60.1400
69.6167,60.0463
69.6167,60.0463
69.5144,59.9832
69.4673,59.9542
69.4673,59.9542
69.4659,59.9537
69.3008,59.8990
69.3008,59.8990
69.1980,59.8885
68.3980,59.8885
68.3980,59.8885
68.2952,59.8990
68.2952,59.8990
68.1287,59.9542
68.1287,59.9542
67.9793,60.0463
67.8553,60.1703
67.7632,60.3197
67.7632,60.3197
67.7412,60.3859
67.7080,60.4862
67.7080,60.4862
67.7073,60.4895
67.7063,60.4913
67.7059,60.4926
67.7056,60.4925
67.6740,60.5509
67.6128,60.5846
67.5861,60.5875
67.1874,60.5875
67.1203,60.5678
67.0746,60.5150
67.0646,60.4459
67.0728,60.4160
67.0953,60.3618
67.1230,60.2948
67.1385,60.1774
67.1437,60.1380
67.1390,60.1027
67.1385,60.0946
67.1385,59.2814
67.1390,59.2733
67.1437,59.2380
67.1437,59.2380
67.1230,59.0812
67.1230,59.0812
67.0728,58.9600
67.0653,58.8905
67.0966,58.8280
67.1567,58.7924
67.1874,58.7885
67.8868,58.7885
67.9538,58.8082
67.9745,58.8248
67.9793,58.8297
68.1287,58.9218
68.2952,58.9770
68.3980,58.9875
69.1980,58.9875
69.1980,58.9875
69.1980,58.9875
69.2543,58.9817
69.3008,58.9770
69.4673,58.9218
69.6167,58.8297
69.7103,58.7360
69.7716,58.7026
69.8413,58.7075
69.8857,58.7360
69.9793,58.8297
70.1287,58.9218
70.2952,58.9770
70.3980,58.9875
71.1980,58.9875
71.1980,58.9875
71.1980,58.9875
71.2543,58.9817
71.3008,58.9770
71.4673,58.9218
71.6167,58.8297
71.7407,58.7057
71.8328,58.5563
71.8880,58.3898
71.8985,58.2870
71.8985,58.1485
73.7050,58.1485
74.6800,58.1485
74.6800,57.3110
75.1800,57.3110
75.1800,58.1485
76.1550,58.1485
76.1550,58.0110
76.1550,58.0110
76.1445,57.9083
76.0894,57.7419
76.0894,57.7419
75.9973,57.5927
75.8733,57.4687
75.7241,57.3766
75.7241,57.3766
75.5577,57.3215
75.5577,57.3215
75.4550,57.3110
75.1800,57.3110
74.6800,57.3110
74.4050,57.3110
74.4050,57.3110
74.3023,57.3215
74.1359,57.3766
74.1359,57.3766
73.9867,57.4687
73.8627,57.5927
73.7706,57.7419
73.7706,57.7419
73.7155,57.9083
73.7155,57.9083
73.7050,58.0110
73.7050,58.1485
71.8985,58.1485
71.8985,57.2870
71.8984,57.2862
71.8880,57.1842
71.8880,57.1842
71.8799,57.1597
71.8328,57.0177
71.7407,56.8683
71.7407,56.8683
71.7369,56.8622
71.7388,56.8611
71.7166,56.8061
71.7296,56.7375
71.7547,56.7110
77.3050,56.7110
77.8550,56.7110
77.8550,55.4760
77.8046,55.4760
77.7175,55.4865
77.7175,55.4865
77.5789,55.5411
77.4601,55.6311
77.3701,55.7499
77.3155,55.8885
77.3155,55.8885
77.3050,55.9756
77.3050,56.7110
71.7547,56.7110
71.7777,56.6868
71.7895,56.6807
71.8267,56.6642
71.9799,56.5529
72.1065,56.4122
72.2012,56.2483
72.2597,56.0683
72.2795,55.8800
72.2597,55.6917
72.2012,55.5117
72.1065,55.3478
71.9799,55.2071
71.9799,55.2071
71.8267,55.0959
71.8267,55.0958
71.6538,55.0189
71.6538,55.0189
71.5080,54.9879
71.4686,54.9795
71.2794,54.9795
71.2469,54.9864
71.0942,55.0189
71.0942,55.0189
70.9213,55.0958
70.9213,55.0959
70.7681,55.2071
70.6415,55.3478
70.5468,55.5117
70.5468,55.5117
70.5255,55.5773
70.4953,55.6267
70.2783,55.8436
70.2783,55.8436
70.2783,55.8436
70.1682,55.9537
70.1460,55.9891
70.1419,55.9948
70.1159,56.0274
70.0978,56.0650
70.0944,56.0711
70.0722,56.1065
70.0722,56.1065
70.0584,56.1459
70.0558,56.1523
70.0376,56.1899
70.0283,56.2307
70.0264,56.2373
70.0126,56.2767
70.0080,56.3182
70.0068,56.3251
69.9975,56.3658
69.9975,56.6748
69.9778,56.7418
69.9612,56.7625
69.8857,56.8380
69.8244,56.8714
69.7547,56.8665
69.7103,56.8379
69.6167,56.7443
69.6167,56.7443
69.5039,56.6748
69.4673,56.6522
69.4673,56.6522
69.4311,56.6402
69.3008,56.5970
69.3008,56.5970
69.1980,56.5865
68.3980,56.5865
68.3980,56.5865
68.2952,56.5970
68.2952,56.5970
68.1287,56.6522
68.1287,56.6522
67.9793,56.7443
67.8553,56.8683
67.7632,57.0177
67.7632,57.0177
67.7545,57.0439
67.7080,57.1842
67.7080,57.1842
67.7080,57.1842
67.6975,57.2870
67.6975,57.4635
67.6778,57.5305
67.6250,57.5763
67.5735,57.5875
66.8604,57.5875
66.7933,57.5678
66.7476,57.5150
66.7371,57.4768
66.7356,57.4635
66.7321,57.4305
66.7321,57.4305
66.7314,57.4239
66.7314,57.3974
66.7380,57.3358
66.7380,57.3358
66.7380,57.2380
66.7007,57.2380
66.6337,57.2183
66.6014,57.1883
66.5955,57.1805
66.5045,57.1123
66.4626,57.0563
66.4576,56.9866
66.4911,56.9253
66.5045,56.9137
66.5955,56.8455
66.6389,56.7877
66.6948,56.7458
66.7380,56.7380
66.7380,56.7380
66.7380,56.6402
66.7380,56.6402
66.7341,56.6036
66.7341,56.5771
66.7385,56.5359
66.7385,55.8401
66.7321,55.7805
66.7232,55.7567
66.6818,55.6457
66.6818,55.6457
66.5955,55.5305
66.5955,55.5305
66.4803,55.4442
66.4803,55.4442
66.3455,55.3939
66.3455,55.3939
66.2859,55.3875
66.2859,55.3875
66.2859,55.3875
66.2859,55.3875
66.2666,55.3875
66.1995,55.3678
66.1538,55.3150
66.1427,55.2572
66.1524,55.0671
66.1216,54.8659
66.0666,54.7174
66.0509,54.6751
66.0509,54.6751
66.0509,54.6751
65.9591,54.5279
65.9433,54.5024
65.9432,54.5024
65.9205,54.4785
65.8031,54.3549
65.6674,54.2605
65.6360,54.2387
65.4491,54.1585
65.2497,54.1175
63.9973,54.1175
63.9973,54.1175
63.8456,54.1329
63.6514,54.1938
63.6514,54.1938
63.4735,54.2926
63.4735,54.2926
63.3191,54.4251
63.3191,54.4251
63.1946,54.5860
63.1946,54.5860
63.1049,54.7687
63.0539,54.9657
63.0436,55.1689
63.0744,55.3701
63.0744,55.3701
63.1451,55.5609
63.1451,55.5609
63.2527,55.7336
63.2527,55.7336
63.3680,55.8548
63.3929,55.8811
63.5213,55.9704
63.5599,55.9973
63.5600,55.9973
63.5600,55.9973
63.7469,56.0775
63.9463,56.1185
64.1635,56.1185
64.2305,56.1382
64.2763,56.1910
64.2875,56.2425
64.2875,56.5359
64.2875,56.5359
64.2919,56.5771
64.2919,56.6036
64.2880,56.6402
64.2880,56.7380
64.2881,56.7381
64.3549,56.7577
64.3871,56.7877
64.4305,56.8455
64.4305,56.8455
64.4305,56.8455
64.5215,56.9137
64.5634,56.9697
64.5684,57.0394
64.5349,57.1007
64.5215,57.1123
64.4305,57.1805
64.4305,57.1805
64.4305,57.1805
64.4246,57.1883
64.3686,57.2302
64.3253,57.2380
64.2880,57.2380
64.2880,57.3358
64.2946,57.3974
64.2946,57.4239
64.2939,57.4305
64.2939,57.4305
64.2875,57.4901
64.2875,57.4901
64.2875,57.4901
64.2875,57.8859
64.2875,57.8859
64.2917,57.9247
64.2917,57.9513
64.2875,57.9901
64.2875,57.9901
64.2875,58.0622
64.2678,58.1292
64.2390,58.1605
64.1097,58.2597
64.0979,58.2751
64.0751,58.2979
64.0597,58.3097
63.9937,58.3957
63.9635,58.4352
63.9635,58.4352
63.9030,58.5812
63.9030,58.5812
63.8823,58.7380
63.8823,58.7380
63.8870,58.7733
63.8875,58.7814
63.8875,59.6186
63.8870,59.6267
63.8841,59.6483
63.8823,59.6620
63.8823,59.6620
63.8875,59.7014
63.9030,59.8188
63.9030,59.8188
63.9590,59.9542
63.9635,59.9648
64.0597,60.0903
64.0597,60.0903
64.0597,60.0903
64.0615,60.0916
64.0844,60.1145
64.0857,60.1163
64.0857,60.1163
64.1205,60.1430
64.2112,60.2125
64.2112,60.2125
64.2112,60.2125
64.2182,60.2166
64.2175,60.2178
64.2654,60.2563
64.2874,60.3226
64.2875,60.3270
64.2875,60.3859
64.2875,60.3859
64.2917,60.4247
64.2917,60.4512
64.2875,60.4901
64.2875,60.8859
64.2875,60.8859
64.2917,60.9247
64.2917,60.9512
64.2875,60.9901
64.2875,61.3859
64.2875,61.3859
64.2946,61.4521
64.2946,61.4786
64.2880,61.5402
64.2880,61.6380
64.3253,61.6380
64.3923,61.6577
64.4246,61.6877
64.4305,61.6955
64.4305,61.6955
64.4305,61.6955
64.5215,61.7637
64.5634,61.8197
64.5684,61.8894
64.5349,61.9507
64.5215,61.9623
64.4305,62.0305
64.4305,62.0305
64.4305,62.0305
64.3871,62.0883
64.3312,62.1302
64.2880,62.1380
64.2880,62.1380
64.2880,62.2358
64.2919,62.2724
64.2919,62.2989
64.2875,62.3401
64.2875,62.3401
64.2875,62.5469
64.2875,62.6335
64.2678,62.7005
64.2150,62.7463
64.1635,62.7575
63.9973,62.7575
63.8456,62.7729
63.6514,62.8338
63.6514,62.8338
63.4735,62.9326
63.4735,62.9326
63.3191,63.0651
63.3191,63.0651
63.1946,63.2260
63.1946,63.2260
63.1049,63.4087
63.0539,63.6057
63.0436,63.8089
61.7172,63.8089
61.7224,63.7071
61.6916,63.5059
61.6352,63.3538
61.6209,63.3151
61.6209,63.3151
61.6209,63.3151
61.5133,63.1424
61.3731,62.9949
61.2408,62.9029
61.2060,62.8787
61.0191,62.7985
60.8197,62.7575
60.0673,62.7575
60.0673,62.7575
59.9156,62.7729
59.7214,62.8338
59.7214,62.8338
59.5435,62.9326
59.5435,62.9326
59.3891,63.0651
59.3891,63.0651
59.2646,63.2260
59.2646,63.2260
59.1749,63.4087
59.1239,63.6057
59.1136,63.8089
58.4205,63.8089
58.4205,55.1689
59.1136,55.1689
59.1444,55.3701
59.1444,55.3701
59.2151,55.5609
59.2151,55.5609
59.3227,55.7336
59.3227,55.7336
59.4380,55.8548
59.4629,55.8811
59.5913,55.9704
59.6299,55.9973
59.6299,55.9973
59.6300,55.9973
59.8169,56.0775
60.0163,56.1185
60.7687,56.1185
60.9204,56.1031
61.1146,56.0422
61.1146,56.0422
61.1146,56.0422
61.2925,55.9434
61.4469,55.8109
61.5577,55.6678
61.5714,55.6500
61.5714,55.6500
61.5714,55.6500
61.6611,55.4673
61.7121,55.2703
61.7224,55.0671
61.6916,54.8659
61.6366,54.7174
61.6209,54.6751
61.6209,54.6751
61.6209,54.6751
61.5291,54.5279
61.5133,54.5024
61.5132,54.5024
61.4905,54.4785
61.3731,54.3549
61.2374,54.2605
61.2060,54.2387
61.0191,54.1585
60.8197,54.1175
60.0673,54.1175
60.0673,54.1175
59.9156,54.1329
59.7214,54.1938
59.7214,54.1938
59.5435,54.2926
59.5435,54.2926
59.3891,54.4251
59.3891,54.4251
59.2646,54.5860
59.2646,54.5860
59.1749,54.7687
59.1239,54.9657
59.1136,55.1689
58.4205,55.1689
58.4205,49.7800
73.0840,49.7800
73.0840,50.0300
73.0945,50.1327
73.1496,50.2991
73.1496,50.2991
73.2417,50.4483
73.3657,50.5723
73.5149,50.6644
73.5149,50.6644
73.6813,50.7195
73.6813,50.7195
73.7840,50.7300
73.9090,50.7300
74.4090,50.7300
74.5340,50.7300
74.5340,50.7300
74.6367,50.7195
74.8031,50.6644
74.8031,50.6644
74.9523,50.5723
75.0763,50.4483
75.0782,50.4453
75.0800,50.4437
75.0808,50.4427
75.0810,50.4428
75.1301,50.3986
75.1991,50.3874
75.2632,50.4152
75.2892,50.4453
75.2913,50.4487
75.2913,50.4487
75.3722,50.5295
75.4057,50.5909
75.4085,50.6172
75.4085,52.6312
75.4022,52.6702
75.3800,52.7372
75.3695,52.8400
75.3695,53.8400
75.3695,53.8400
75.3800,53.9428
75.3800,53.9428
75.4352,54.1093
75.4352,54.1093
75.4570,54.1448
75.5273,54.2587
75.6513,54.3827
75.8007,54.4748
75.9672,54.5300
76.0700,54.5405
76.8700,54.5405
76.8700,54.5405
76.8700,54.5405
76.9263,54.5347
76.9728,54.5300
77.1393,54.4748
77.2887,54.3827
77.3823,54.2890
77.4436,54.2556
77.5133,54.2605
77.5577,54.2890
77.6513,54.3827
77.8007,54.4748
77.9672,54.5300
78.0700,54.5405
78.4505,54.5405
78.5175,54.5602
78.5633,54.6130
78.5745,54.6645
78.5745,55.3565
78.5548,55.4236
78.5020,55.4693
78.4357,55.4796
78.4054,55.4760
78.3550,55.4760
78.3550,57.0870
78.3353,57.1540
78.2825,57.1998
78.2310,57.2110
77.3050,57.2110
77.3050,57.9464
77.3155,58.0335
77.3155,58.0335
77.3701,58.1721
77.4601,58.2909
77.5789,58.3809
77.7175,58.4355
77.7493,58.4394
77.8135,58.4669
77.8526,58.5248
77.8585,58.5625
77.8585,60.2766
77.8388,60.3436
77.8222,60.3642
77.7853,60.4011
77.7251,60.4340
77.7251,60.4340
77.7250,60.4340
77.7240,60.4346
77.7202,60.4353
77.7173,60.4360
77.5786,60.4907
77.5786,60.4907
77.4598,60.5808
77.3697,60.6996
77.3697,60.6996
77.3150,60.8383
77.3150,60.8383
77.3045,60.9255
77.3045,62.8965
77.3150,62.9836
77.3150,62.9837
77.3697,63.1224
77.3697,63.1224
77.3933,63.1535
77.4598,63.2412
77.5440,63.3051
77.5719,63.3263
77.5786,63.3313
77.5786,63.3313
77.5786,63.3313
77.7173,63.3860
77.7173,63.3860
77.7173,63.3860
77.7733,63.3927
77.8045,63.3965
77.8045,63.3965
78.4055,63.3965
78.4055,63.3965
78.4357,63.3929
78.5046,63.4044
78.5563,63.4514
78.5745,63.5160
78.5745,64.4842
78.5548,64.5512
78.5020,64.5970
78.4895,64.6019
78.3407,64.6512
78.3407,64.6512
78.1913,64.7433
78.0673,64.8673
77.9752,65.0167
77.9752,65.0167
77.9662,65.0439
77.9200,65.1832
77.9200,65.1832
77.9200,65.1832
77.9095,65.2860
77.9095,66.2860
77.9095,66.2860
77.9200,66.3888
77.9200,66.3888
77.9662,66.5281
77.9752,66.5553
78.0673,66.7047
78.1913,66.8287
78.3407,66.9208
78.5072,66.9760
78.6100,66.9865
79.4100,66.9865
79.4100,66.9865
79.4100,66.9865
79.4663,66.9807
79.5128,66.9760
79.6793,66.9208
79.8287,66.8287
79.9223,66.7350
79.9836,66.7016
80.0533,66.7065
80.0977,66.7350
80.1913,66.8287
80.3407,66.9208
80.5072,66.9760
80.6100,66.9865
81.4100,66.9865
81.4100,66.9865
81.4100,66.9865
81.4663,66.9807
81.5128,66.9760
81.6793,66.9208
81.8287,66.8287
81.9527,66.7047
82.0448,66.5553
82.1000,66.3888
82.1105,66.2860
82.1105,65.2860
82.1056,65.2382
82.1000,65.1832
82.1000,65.1832
82.0985,65.1786
82.0448,65.0167
81.9527,64.8673
81.8287,64.7433
81.6793,64.6512
81.6793,64.6512
81.6793,64.6512
81.6575,64.6439
81.6000,64.6042
81.5732,64.5397
81.5725,64.5262
81.5725,64.4557
81.5891,64.3937
81.5992,64.3763
81.6577,64.1963
81.6775,64.0080
81.6577,63.8197
81.5992,63.6397
81.5659,63.5820
81.5494,63.5141
81.5722,63.4481
81.6272,63.4049
81.6630,63.3980
81.6650,63.3960
81.6650,62.1610
82.1650,62.1610
82.1650,63.3960
82.2154,63.3960
82.3025,63.3855
82.3025,63.3855
82.4411,63.3309
82.5599,63.2409
82.6499,63.1221
82.7045,62.9835
82.7045,62.9835
82.7150,62.8964
82.7150,62.1610
82.1650,62.1610
81.6650,62.1610
81.6650,61.7850
81.6847,61.7180
81.7375,61.6722
81.7890,61.6610
82.7150,61.6610
82.7150,60.9256
82.7045,60.8385
82.7045,60.8385
82.6499,60.6999
82.5599,60.5811
82.4411,60.4911
82.3025,60.4365
82.2707,60.4326
82.2065,60.4051
82.1674,60.3472
82.1615,60.3095
82.1615,58.5630
82.1812,58.4959
82.2340,58.4502
82.2707,58.4399
82.3027,58.4360
82.4414,58.3813
82.5602,58.2912
82.6503,58.1724
82.7025,58.0400
82.7454,57.9849
82.8113,57.9617
82.8179,57.9615
82.9795,57.9615
82.9811,57.9615
83.0183,57.9625
83.0694,57.9638
83.0694,57.9638
83.0694,57.9638
83.1298,57.9529
83.1344,57.9523
83.1766,57.9480
83.1954,57.9461
83.2282,57.9358
83.2358,57.9339
83.2697,57.9279
83.3266,57.9051
83.3311,57.9035
83.3896,57.8852
83.4196,57.8685
83.4267,57.8651
83.4586,57.8524
83.5099,57.8186
83.5139,57.8162
83.5675,57.7864
83.5936,57.7640
83.5998,57.7593
83.6285,57.7404
83.6719,57.6970
83.6753,57.6938
83.7219,57.6539
83.7429,57.6267
83.7481,57.6208
85.3478,56.0211
85.4091,55.9876
85.4788,55.9926
85.5348,56.0345
85.5592,56.0999
85.5595,56.1088
85.5595,62.1272
85.5595,62.1272
85.5688,62.1679
85.5700,62.1748
85.5746,62.2163
85.5884,62.2557
85.5903,62.2623
85.5996,62.3031
85.6178,62.3407
85.6204,62.3471
85.6342,62.3865
85.6564,62.4219
85.6598,62.4280
85.6779,62.4656
85.7039,62.4982
85.7080,62.5039
85.7302,62.5393
85.7302,62.5393
85.7622,62.5713
85.7622,62.5713
85.7796,62.5887
85.7796,62.5887
86.4960,63.3051
86.5295,63.3664
86.5245,63.4361
86.4960,63.4804
86.4682,63.5082
86.4069,63.5417
86.3806,63.5445
85.9510,63.5445
85.9510,63.5445
85.8482,63.5550
85.8482,63.5550
85.6817,63.6102
85.6817,63.6102
85.5323,63.7023
85.4083,63.8263
85.3162,63.9757
85.3162,63.9757
85.3048,64.0101
85.2610,64.1422
85.2610,64.1422
85.2610,64.1422
85.2505,64.2450
85.2505,65.2950
85.2505,65.2950
85.2610,65.3978
85.2610,65.3978
85.3010,65.5185
85.3162,65.5643
85.4083,65.7137
85.5323,65.8377
85.6817,65.9298
85.8482,65.9850
85.9510,65.9955
86.7260,65.9955
86.7260,65.9955
86.7260,65.9955
86.7823,65.9897
86.8288,65.9850
86.9953,65.9298
87.1447,65.8377
87.2687,65.7137
87.2705,65.7108
87.2722,65.7093
87.2732,65.7080
87.2734,65.7082
87.3224,65.6641
87.3914,65.6529
87.4555,65.6807
87.4815,65.7108
87.4833,65.7137
87.6073,65.8377
87.7567,65.9298
87.9232,65.9850
88.0260,65.9955
88.4556,65.9955
88.5226,66.0152
88.5432,66.0318
88.7997,66.2883
88.9272,66.4158
88.9626,66.4380
88.9683,66.4421
89.0009,66.4681
89.0009,66.4681
89.0220,66.4783
89.0385,66.4862
89.0446,66.4896
89.0621,66.5006
89.0800,66.5118
89.1194,66.5256
89.1258,66.5282
89.1634,66.5464
89.2041,66.5556
89.2108,66.5576
89.2502,66.5714
89.2502,66.5714
89.2917,66.5760
89.2986,66.5772
89.3393,66.5865
89.3393,66.5865
97.3722,66.5865
97.4129,66.5772
97.4198,66.5760
97.4613,66.5714
97.5007,66.5576
97.5073,66.5557
97.5481,66.5464
97.5857,66.5282
97.5921,66.5256
97.6315,66.5118
97.6669,66.4896
97.6730,66.4862
97.7106,66.4681
97.7432,66.4421
97.7489,66.4380
97.7843,66.4158
97.9118,66.2883
97.9118,66.2883
98.1641,66.0360
100.7300,66.0360
100.7300,66.3338
100.7364,66.3934
100.7364,66.3934
100.7866,66.5281
100.7866,66.5281
100.8728,66.6432
100.8728,66.6432
100.9879,66.7293
100.9879,66.7294
101.1226,66.7796
101.1226,66.7796
101.1822,66.7860
101.1822,66.7860
102.2350,66.7860
102.2350,66.0360
102.7350,66.0360
102.7350,66.7860
103.7878,66.7860
103.7878,66.7860
103.8474,66.7796
103.8474,66.7796
103.9821,66.7294
103.9821,66.7293
104.0972,66.6432
104.0972,66.6432
104.1833,66.5281
104.1834,66.5281
104.2336,66.3934
104.2336,66.3934
104.2400,66.3338
104.2400,66.3338
104.2400,66.0360
102.7350,66.0360
102.2350,66.0360
100.7300,66.0360
98.1641,66.0360
98.6641,65.5360
100.7300,65.5360
102.2350,65.5360
102.2350,64.7860
102.7350,64.7860
102.7350,65.5360
104.2400,65.5360
104.2400,65.2382
104.2400,65.2382
104.2336,65.1786
104.2336,65.1786
104.1834,65.0439
104.1833,65.0439
104.0972,64.9288
104.0972,64.9288
103.9821,64.8426
103.9821,64.8426
103.8474,64.7924
103.8474,64.7924
103.7878,64.7860
102.7350,64.7860
102.2350,64.7860
101.1822,64.7860
101.1226,64.7924
101.1226,64.7924
100.9879,64.8426
100.9879,64.8426
100.8728,64.9288
100.8728,64.9288
100.7866,65.0439
100.7866,65.0439
100.7364,65.1786
100.7364,65.1786
100.7300,65.2382
100.7300,65.5360
98.6641,65.5360
103.2138,60.9863
103.2501,60.9500
103.2526,60.9434
103.2680,60.9189
103.2721,60.9132
103.2981,60.8806
103.3162,60.8430
103.3196,60.8369
103.3418,60.8015
103.3556,60.7621
103.3582,60.7557
103.3764,60.7181
103.3857,60.6773
103.3876,60.6707
103.4014,60.6313
103.4060,60.5898
103.4072,60.5829
103.4145,60.5509
103.4165,60.5422
103.4165,60.3618
103.4165,59.6255
103.4362,59.5585
103.4890,59.5127
103.5405,59.5015
103.8758,59.5015
103.9429,59.5212
103.9751,59.5512
104.0555,59.6585
104.0626,59.6639
104.1707,59.7448
104.1707,59.7448
104.3055,59.7951
104.3055,59.7951
104.3124,59.7958
104.3651,59.8015
106.9709,59.8015
107.0305,59.7951
107.1653,59.7448
107.2805,59.6585
107.3668,59.5433
107.4171,59.4085
107.4235,59.3489
107.4235,58.2531
107.4171,58.1935
107.4127,58.1816
107.3668,58.0587
107.3668,58.0587
107.2805,57.9435
107.2805,57.9435
107.1653,57.8572
107.1653,57.8572
107.0305,57.8069
107.0305,57.8069
106.9709,57.8005
106.9709,57.8005
106.9709,57.8005
106.9709,57.8005
104.3651,57.8005
104.3651,57.8005
104.3055,57.8069
104.1707,57.8572
104.1707,57.8572
104.0555,57.9435
104.0555,57.9435
104.0555,57.9435
103.9751,58.0508
103.9192,58.0927
103.8758,58.1005
103.0415,58.1005
102.9755,58.0815
102.9655,58.0752
102.7952,58.0156
102.7246,58.0077
102.6602,57.9806
102.6508,57.9721
102.1518,57.4732
102.1184,57.4119
102.1233,57.3422
102.1652,57.2862
102.2307,57.2618
102.2395,57.2615
102.3311,57.2615
102.3342,57.2616
102.3629,57.2630
102.4089,57.2654
102.4218,57.2634
102.4249,57.2629
102.4436,57.2615
103.6609,57.2615
103.6609,57.2615
103.7205,57.2551
103.8553,57.2048
103.9705,57.1185
104.0568,57.0033
104.1071,56.8685
104.1135,56.8089
104.1135,55.7131
104.1071,55.6535
104.0987,55.6311
104.0568,55.5187
104.0568,55.5187
103.9705,55.4035
103.9705,55.4035
103.8553,55.3172
103.8553,55.3172
103.7205,55.2669
103.7205,55.2669
103.6609,55.2605
103.6609,55.2605
103.6609,55.2605
103.6609,55.2605
103.4825,55.2605
103.4155,55.2408
103.3697,55.1880
103.3585,55.1365
103.3585,55.1359
103.3585,55.1274
103.3585,55.1260
103.3608,55.0376
103.3499,54.9772
103.3493,54.9726
103.3431,54.9116
103.3431,54.9116
103.3328,54.8788
103.3309,54.8712
103.3300,54.8659
103.3249,54.8373
103.3021,54.7804
103.3005,54.7760
103.2869,54.7325
103.2822,54.7174
103.2822,54.7174
103.2655,54.6874
103.2621,54.6803
103.2494,54.6484
103.2156,54.5971
103.2132,54.5931
103.1834,54.5395
103.1610,54.5134
103.1563,54.5072
103.1374,54.4785
103.1374,54.4785
103.1157,54.4568
103.0940,54.4351
103.0908,54.4317
103.0509,54.3851
103.0237,54.3641
103.0178,54.3589
98.9116,50.2527
98.8781,50.1914
98.8831,50.1217
98.9116,50.0773
99.1650,49.8239
103.7855,49.8239
103.7855,49.8239
103.7919,49.8835
103.8422,50.0183
103.8422,50.0183
103.9285,50.1335
103.9285,50.1335
104.0437,50.2198
104.0437,50.2198
104.0886,50.2366
104.1785,50.2701
104.2381,50.2765
104.4165,50.2765
104.4835,50.2962
104.5293,50.3490
104.5405,50.4005
104.5405,52.1875
104.5405,52.1891
104.5382,52.2774
104.5382,52.2774
104.5491,52.3377
104.5497,52.3424
104.5559,52.4034
104.5559,52.4034
104.5662,52.4362
104.5681,52.4438
104.5741,52.4777
104.5741,52.4777
104.5969,52.5346
104.5985,52.5391
104.6168,52.5976
104.6168,52.5976
104.6335,52.6276
104.6369,52.6347
104.6496,52.6666
104.6496,52.6666
104.6662,52.6917
104.6778,52.7094
104.6834,52.7178
104.6858,52.7219
104.7156,52.7755
104.7156,52.7755
104.7156,52.7755
104.7380,52.8016
104.7427,52.8078
104.7534,52.8240
104.7616,52.8365
104.8050,52.8799
104.8082,52.8833
104.8455,52.9268
104.8481,52.9299
104.8753,52.9509
104.8812,52.9561
104.9924,53.0673
105.1106,53.1637
105.2910,53.2579
105.4866,53.3139
105.6751,53.3282
105.6895,53.3293
105.6895,53.3293
105.8913,53.3036
105.8913,53.3036
105.8913,53.3036
106.0839,53.2378
106.2592,53.1346
106.4102,52.9982
106.5306,52.8342
106.6156,52.6493
106.6190,52.6347
106.6616,52.4511
106.6628,52.4034
106.6668,52.2476
106.6374,52.0841
106.6309,52.0474
106.6309,52.0473
106.6200,52.0202
106.5554,51.8584
106.5554,51.8584
106.5530,51.8525
106.5540,51.8522
106.5415,51.8014
106.5415,50.4005
106.5612,50.3335
106.6140,50.2877
106.6655,50.2765
106.8439,50.2765
106.8439,50.2765
106.9035,50.2701
107.0383,50.2198
107.1535,50.1335
107.2398,50.0183
107.2901,49.8835
107.2965,49.8239
107.2965,48.7281
107.2901,48.6685
107.2874,48.6614
107.2398,48.5337
107.2398,48.5337
107.1535,48.4185
107.1535,48.4185
107.0383,48.3322
107.0383,48.3322
106.9035,48.2819
106.9035,48.2819
106.8439,48.2755
106.8439,48.2755
106.8439,48.2755
106.8439,48.2755
105.5679,48.2755
105.5648,48.2754
105.4901,48.2716
105.4901,48.2716
105.4901,48.2716
105.4741,48.2741
105.4554,48.2755
104.2381,48.2755
104.2381,48.2755
104.1785,48.2819
104.0437,48.3322
104.0437,48.3322
103.9285,48.4185
103.9285,48.4185
103.8422,48.5337
103.8422,48.5337
103.7919,48.6685
103.7855,48.7281
103.7855,48.7281
103.7855,48.7281
103.7855,49.8239
99.1650,49.8239
101.2161,47.7728
101.2774,47.7393
101.3038,47.7365
102.2848,47.7365
102.2848,47.7365
103.5339,47.7365
103.5339,47.7365
103.5935,47.7301
103.7283,47.6798
103.8435,47.5935
103.9298,47.4783
103.9801,47.3435
103.9865,47.2839
103.9865,46.1881
103.9801,46.1285
103.9482,46.0431
103.9298,45.9937
103.9298,45.9937
103.8435,45.8785
103.8435,45.8785
103.7283,45.7922
103.7283,45.7922
103.5935,45.7419
103.5935,45.7419
103.5339,45.7355
103.5339,45.7355
103.5339,45.7355
103.5339,45.7355
100.8515,45.7355
100.8499,45.7355
100.7616,45.7332
100.7616,45.7332
100.7013,45.7441
100.6966,45.7447
100.6356,45.7509
100.6356,45.7509
100.6028,45.7612
100.5952,45.7631
100.5613,45.7691
100.5044,45.7919
100.4999,45.7935
100.4414,45.8118
100.4414,45.8118
100.4114,45.8285
100.4043,45.8319
100.3724,45.8446
100.3724,45.8446
100.3212,45.8784
100.3171,45.8808
100.2635,45.9106
100.2374,45.9330
100.2312,45.9377
100.2025,45.9566
100.2025,45.9566
100.1591,46.0000
100.1557,46.0032
100.1091,46.0431
100.0881,46.0703
100.0829,46.0762
97.1579,49.0012
97.0966,49.0347
97.0702,49.0375
96.5335,49.0375
96.5319,49.0375
96.5248,49.0373
96.4436,49.0352
96.4436,49.0352
96.4419,49.0356
96.4200,49.0375
90.3099,49.0375
90.3084,49.0375
90.2201,49.0352
90.2201,49.0352
90.2201,49.0352
90.1598,49.0461
90.1551,49.0467
90.0941,49.0529
90.0613,49.0632
90.0536,49.0651
90.0198,49.0711
89.9629,49.0939
89.9584,49.0955
89.8999,49.1138
89.8999,49.1138
89.8699,49.1305
89.8628,49.1339
89.8309,49.1466
89.8309,49.1466
89.7797,49.1804
89.7756,49.1828
89.7220,49.2126
89.6959,49.2350
89.6897,49.2397
89.6610,49.2586
89.6610,49.2586
89.6176,49.3020
89.6142,49.3052
89.5676,49.3451
89.5466,49.3723
89.5414,49.3782
87.8321,51.0875
87.7707,51.1210
87.7570,51.1232
87.6512,51.1340
87.6512,51.1340
87.4847,51.1892
87.4847,51.1892
87.3353,51.2813
87.2151,51.4016
87.1734,51.4290
87.1644,51.4326
87.1644,51.4326
87.1132,51.4664
87.1091,51.4688
87.0555,51.4986
87.0294,51.5210
87.0232,51.5257
86.9945,51.5446
86.9945,51.5446
86.9511,51.5880
86.9477,51.5912
86.9011,51.6311
86.8801,51.6583
86.8749,51.6642
85.1162,53.4229
85.0549,53.4564
84.9852,53.4514
84.9292,53.4095
84.9048,53.3441
84.9045,53.3352
84.9045,52.8400
84.9045,52.8400
84.8940,52.7372
84.8940,52.7372
84.8876,52.7178
84.8388,52.5707
84.7467,52.4213
84.6227,52.2973
84.4733,52.2052
84.4425,52.1950
84.3850,52.1552
84.3582,52.0907
84.3575,52.0773
84.3575,50.6172
84.3772,50.5502
84.3938,50.5295
84.3938,50.5295
84.4747,50.4487
84.4768,50.4453
84.4787,50.4436
84.4792,50.4430
84.4793,50.4431
84.5287,50.3986
84.5977,50.3874
84.6617,50.4152
84.6878,50.4453
84.6897,50.4483
84.6897,50.4483
84.8137,50.5723
84.9629,50.6644
84.9629,50.6644
85.1293,50.7195
85.1293,50.7195
85.2320,50.7300
85.3570,50.7300
85.3570,50.7300
85.3570,49.7800
85.8570,49.7800
85.8570,50.7300
85.9820,50.7300
85.9820,50.7300
86.0847,50.7195
86.2511,50.6644
86.2511,50.6644
86.4003,50.5723
86.5243,50.4483
86.6164,50.2991
86.6164,50.2991
86.6715,50.1327
86.6715,50.1327
86.6820,50.0300
86.6820,50.0300
86.6820,49.7800
85.8570,49.7800
85.3570,49.7800
85.3570,48.3300
85.8570,48.3300
85.8570,49.2800
86.6820,49.2800
86.6820,49.0300
86.6820,49.0300
86.6715,48.9273
86.6164,48.7609
86.6164,48.7609
86.5243,48.6117
86.4003,48.4877
86.2511,48.3956
86.2511,48.3956
86.0847,48.3405
86.0847,48.3405
85.9820,48.3300
85.8570,48.3300
85.3570,48.3300
85.2320,48.3300
85.2320,48.3300
85.1293,48.3405
84.9629,48.3956
84.9629,48.3956
84.8137,48.4877
84.6897,48.6117
84.6897,48.6117
84.6878,48.6147
84.6860,48.6163
84.6852,48.6173
84.6850,48.6172
84.6359,48.6614
84.5669,48.6726
84.5028,48.6448
84.4768,48.6147
84.4767,48.6146
84.4747,48.6113
84.3507,48.4873
84.2391,48.4185
84.2013,48.3952
84.2013,48.3952
84.1999,48.3947
84.0348,48.3400
84.0348,48.3400
83.9320,48.3295
83.1820,48.3295
83.1820,48.3295
83.0792,48.3400
83.0792,48.3400
82.9127,48.3952
82.9127,48.3952
82.7633,48.4873
82.6393,48.6113
82.5472,48.7607
82.5472,48.7607
82.5471,48.7609
82.4920,48.9272
82.4920,48.9272
82.4920,48.9272
82.4815,49.0300
82.4815,50.0300
82.4815,50.0300
82.4920,50.1328
82.4920,50.1328
82.5461,50.2962
82.5472,50.2993
82.6391,50.4483
82.6393,50.4487
82.7202,50.5295
82.7537,50.5909
82.7565,50.6172
82.7565,52.1577
82.7368,52.2247
82.6840,52.2705
82.6149,52.2804
82.5674,52.2632
82.4733,52.2052
82.4733,52.2052
82.4733,52.2052
82.3068,52.1500
82.3068,52.1500
82.2040,52.1395
81.4040,52.1395
81.4040,52.1395
81.3012,52.1500
81.3012,52.1500
81.1347,52.2052
81.1347,52.2052
80.9853,52.2973
80.8613,52.4213
80.7692,52.5707
80.7692,52.5707
80.7431,52.6493
80.7140,52.7372
80.7140,52.7372
80.7140,52.7372
80.7035,52.8400
80.7035,53.2571
80.6838,53.3241
80.6672,53.3447
80.2168,53.7951
80.1555,53.8286
80.0858,53.8236
80.0298,53.7818
80.0241,53.7734
80.0048,53.7427
80.0048,53.7427
79.8773,53.6152
79.6068,53.3447
79.5733,53.2834
79.5705,53.2571
79.5705,52.8400
79.5705,52.8400
79.5600,52.7372
79.5600,52.7372
79.5536,52.7178
79.5048,52.5707
79.4127,52.4213
79.2887,52.2973
79.1959,52.2401
79.1393,52.2052
79.1393,52.2052
79.1022,52.1929
78.9728,52.1500
78.9728,52.1500
78.8700,52.1395
78.0700,52.1395
78.0700,52.1395
77.9672,52.1500
77.9672,52.1500
77.8007,52.2052
77.8007,52.2052
77.6513,52.2973
77.5577,52.3910
77.4964,52.4244
77.4267,52.4195
77.3823,52.3910
77.2887,52.2973
77.2887,52.2973
77.1959,52.2401
77.1393,52.2052
77.1393,52.2052
77.1393,52.2052
77.0945,52.1903
77.0370,52.1506
77.0102,52.0860
77.0095,52.0726
77.0095,50.6172
77.0292,50.5502
77.0458,50.5295
77.0458,50.5295
77.1267,50.4487
77.2188,50.2993
77.2740,50.1328
77.2845,50.0300
77.2845,49.0300
77.2740,48.9272
77.2188,48.7607
77.1267,48.6113
77.0027,48.4873
76.8911,48.4185
76.8533,48.3952
76.8533,48.3952
76.8519,48.3947
76.6868,48.3400
76.6868,48.3400
76.5840,48.3295
75.8340,48.3295
75.8340,48.3295
75.7312,48.3400
75.7312,48.3400
75.5647,48.3952
75.5647,48.3952
75.4153,48.4873
75.2913,48.6113
75.2913,48.6113
75.2892,48.6147
75.2872,48.6165
75.2868,48.6170
75.2867,48.6169
75.2373,48.6614
75.1683,48.6726
75.1042,48.6448
75.0782,48.6147
75.0763,48.6117
75.0763,48.6117
74.9523,48.4877
74.8031,48.3956
74.8031,48.3956
74.6367,48.3405
74.6367,48.3405
74.5340,48.3300
74.4090,48.3300
74.4090,50.7300
73.9090,50.7300
73.9090,50.7300
73.9090,49.7800
73.0840,49.7800
58.4205,49.7800
58.4205,49.2800
73.0840,49.2800
73.9090,49.2800
73.9090,48.3300
73.7840,48.3300
73.7840,48.3300
73.6813,48.3405
73.5149,48.3956
73.5149,48.3956
73.3657,48.4877
73.2417,48.6117
73.1496,48.7609
73.1496,48.7609
73.0945,48.9273
73.0945,48.9273
73.0840,49.0300
73.0840,49.2800
58.4205,49.2800
58.4205,43.3045
58.4402,43.2375
58.4930,43.1917
58.5445,43.1805
109.0955,43.1805
Z" /> 
</g>
</g>
</g>
<g style="fill:#FFFFFF; fill-opacity:1.0000; 
stroke:#FFFFFF; stroke-width:0.0000; stroke-opacity:1; 
stroke-linecap:round; stroke-linejoin:round;">
<circle cx="105.6640" cy="71.3740" r="0.1750" /> 
</g>
<g style="fill:#FFFFFF; fill-opacity:1.0000; 
stroke:#FFFFFF; stroke-width:0.0212; stroke-opacity:1; 
stroke-linecap:round; stroke-linejoin:round;">
</g>
<g style="fill:#FFFFFF; fill-opacity:1.0000; 
stroke:#FFFFFF; stroke-width:0.0000; stroke-opacity:1; 
stroke-linecap:round; stroke-linejoin:round;">
<circle cx="105.6640" cy="52.3240" r="0.1750" /> 
</g>
<g style="fill:#FFFFFF; fill-opacity:1.0000; 
stroke:#FFFFFF; stroke-width:0.0212; stroke-opacity:1; 
stroke-linecap:round; stroke-linejoin:round;">
</g>
<g style="fill:#FFFFFF; fill-opacity:1.0000; 
stroke:#FFFFFF; stroke-width:0.0000; stroke-opacity:1; 
stroke-linecap:round; stroke-linejoin:round;">
<circle cx="95.5040" cy="64.5160" r="0.1750" /> 
</g>
<g style="fill:#FFFFFF; fill-opacity:1.0000; 
stroke:#FFFFFF; stroke-width:0.0212; stroke-opacity:1; 
stroke-linecap:round; stroke-linejoin:round;">
</g>
<g style="fill:#FFFFFF; fill-opacity:1.0000; 
stroke:#FFFFFF; stroke-width:0.0000; stroke-opacity:1; 
stroke-linecap:round; stroke-linejoin:round;">
<circle cx="92.2020" cy="56.1340" r="0.1750" /> 
</g>
<g style="fill:#FFFFFF; fill-opacity:1.0000; 
stroke:#FFFFFF; stroke-width:0.0212; stroke-opacity:1; 
stroke-linecap:round; stroke-linejoin:round;">
</g>
<g style="fill:#FFFFFF; fill-opacity:1.0000; 
stroke:#FFFFFF; stroke-width:0.0000; stroke-opacity:1; 
stroke-linecap:round; stroke-linejoin:round;">
<circle cx="80.7720" cy="64.0080" r="0.1750" /> 
</g>
<g style="fill:#FFFFFF; fill-opacity:1.0000; 
stroke:#FFFFFF; stroke-width:0.0212; stroke-opacity:1; 
stroke-linecap:round; stroke-linejoin:round;">
</g>
<g style="fill:#FFFFFF; fill-opacity:1.0000; 
stroke:#FFFFFF; stroke-width:0.0000; stroke-opacity:1; 
stroke-linecap:round; stroke-linejoin:round;">
<circle cx="74.4220" cy="62.2300" r="0.1750" /> 
</g>
<g style="fill:#FFFFFF; fill-opacity:1.0000; 
stroke:#FFFFFF; stroke-width:0.0212; stroke-opacity:1; 
stroke-linecap:round; stroke-linejoin:round;">
</g>
<g style="fill:#FFFFFF; fill-opacity:1.0000; 
stroke:#FFFFFF; stroke-width:0.0000; stroke-opacity:1; 
stroke-linecap:round; stroke-linejoin:round;">
<circle cx="71.3740" cy="62.9920" r="0.1750" /> 
</g>
<g style="fill:#FFFFFF; fill-opacity:1.0000; 
stroke:#FFFFFF; stroke-width:0.0212; stroke-opacity:1; 
stroke-linecap:round; stroke-linejoin:round;">
</g>
<g style="fill:#FFFFFF; fill-opacity:1.0000; 
stroke:#FFFFFF; stroke-width:0.0000; stroke-opacity:1; 
stroke-linecap:round; stroke-linejoin:round;">
<circle cx="71.3740" cy="55.8800" r="0.1750" /> 
</g>
<g style="fill:#FFFFFF; fill-opacity:1.0000; 
stroke:#FFFFFF; stroke-width:0.0212; stroke-opacity:1; 
stroke-linecap:round; stroke-linejoin:round;">
</g>
<g style="fill:#FFFFFF; fill-opacity:1.0000; 
stroke:#FFFFFF; stroke-width:0.6000; stroke-opacity:1; 
stroke-linecap:round; stroke-linejoin:round;">
</g>
<g style="fill:#FFFFFF; fill-opacity:0.0; 
stroke:#FFFFFF; stroke-width:0.6000; stroke-opacity:1; 
stroke-linecap:round; stroke-linejoin:round;">
<path d="M65.1480 55.1180
L64.0480 55.1180
" />
<path d="M60.7180 55.1180
L60.1180 55.1180
" />
<path d="M65.1480 63.7580
L64.0480 63.7580
" />
<path d="M60.7180 63.7580
L60.1180 63.7580
" />
</g>
<g style="fill:#000000; fill-opacity:0.0; 
stroke:#000000; stroke-width:0.6000; stroke-opacity:1; 
stroke-linecap:round; stroke-linejoin:round;">
</g> 
</svg>
